<svg width="101" height="101" viewBox="0 0 101 101" fill="none" xmlns="http://www.w3.org/2000/svg">
<g clip-path="url(#clip0_20_81)">
<path d="M86.8469 55.6301C87.0089 54.5866 87.386 53.7222 87.9781 53.0369C88.5808 52.3533 89.3198 51.8689 90.1953 51.5839C91.0691 51.3093 92.0013 51.249 92.9921 51.4028C93.9829 51.5566 94.8531 51.8968 95.6025 52.4233C96.3503 52.9604 96.9024 53.6452 97.2589 54.4778C97.626 55.312 97.7285 56.2508 97.5665 57.2943C97.4437 58.0848 97.191 58.7742 96.8082 59.3625C96.436 59.9523 95.9731 60.431 95.4195 60.7984C94.8659 61.1658 94.2504 61.4103 93.5731 61.5318L93.767 60.2828C94.4509 60.1191 95.0267 59.7821 95.4946 59.2719C95.9624 58.7616 96.2634 58.0743 96.3976 57.21C96.5285 56.3667 96.4508 55.6153 96.1647 54.9556C95.8874 54.308 95.4563 53.7823 94.8713 53.3785C94.2863 52.9746 93.5986 52.7113 92.8081 52.5886C92.0281 52.4675 91.2929 52.5099 90.6024 52.7157C89.9226 52.9232 89.3471 53.2926 88.876 53.824C88.4138 54.3675 88.1172 55.0609 87.9863 55.9041C87.8521 56.7685 87.9306 57.5147 88.2217 58.1427C88.5128 58.7708 88.9593 59.2665 89.5614 59.6299L89.3675 60.8789C88.7694 60.5594 88.2571 60.1398 87.8304 59.6202C87.4143 59.1022 87.113 58.5049 86.9266 57.8283C86.7507 57.1534 86.7242 56.4206 86.8469 55.6301Z" fill="#7B2D2D"/>
<path d="M86.1222 61.7043L93.5875 70.4606L92.9152 71.806L81.4306 71.0933L82.0242 69.9054L85.3515 70.1192L87.6974 65.4247L85.5286 62.8922L86.1222 61.7043ZM88.4775 66.3332L86.5465 70.1976L92.135 70.5755L88.4775 66.3332Z" fill="#7B2D2D"/>
<path d="M80.5884 72.3099L88.319 79.5507L84.8517 83.2525C84.108 84.0466 83.2993 84.473 82.4259 84.5317C81.5451 84.5983 80.7349 84.2852 79.9953 83.5925C79.4971 83.1258 79.1912 82.6566 79.0777 82.1849C78.9569 81.7209 78.9535 81.272 79.0676 80.8382C79.1895 80.4116 79.3503 80.0214 79.55 79.6678L74.5289 78.7793L75.5024 77.74L80.2185 78.6498L82.7342 75.9639L79.7681 73.1857L80.5884 72.3099ZM83.5633 76.7405L81.0586 79.4147C80.7961 79.6949 80.5727 80.0192 80.3886 80.3874C80.2044 80.7557 80.1302 81.1392 80.1659 81.538C80.202 81.9519 80.4186 82.3448 80.8157 82.7167C81.3061 83.176 81.8483 83.3696 82.4421 83.2974C83.0437 83.2324 83.6033 82.9235 84.1211 82.3708L86.6696 79.6499L83.5633 76.7405Z" fill="#7B2D2D"/>
<path d="M70.7421 81.3361L75.5816 89.4598L78.7568 87.5683L79.3382 88.5442L71.9567 92.9415L71.3753 91.9656L74.5506 90.074L69.7112 81.9502L70.7421 81.3361Z" fill="#7B2D2D"/>
<path d="M60.1601 90.0404L60.472 91.6424L58.9486 91.939L58.6367 90.337L60.1601 90.0404Z" fill="#7B2D2D"/>
<path d="M45.1251 86.6654C46.1653 86.8474 47.0223 87.2409 47.6961 87.8461C48.3681 88.4617 48.8382 89.2099 49.1065 90.0907C49.3642 90.9696 49.4067 91.9028 49.2339 92.8905C49.0612 93.8782 48.7044 94.7416 48.1636 95.4808C47.6123 96.2182 46.917 96.7571 46.0778 97.0976C45.2367 97.4486 44.2961 97.5331 43.2559 97.3512C42.4679 97.2133 41.7835 96.9474 41.2027 96.5534C40.62 96.17 40.1503 95.698 39.7936 95.1375C39.4368 94.5769 39.2042 93.9569 39.0956 93.2774L40.3407 93.4952C40.4913 94.1821 40.8172 94.7643 41.3184 95.2418C41.8196 95.7193 42.501 96.0334 43.3626 96.1841C44.2032 96.3311 44.956 96.2679 45.6211 95.9944C46.2738 95.7296 46.8076 95.3086 47.2226 94.7315C47.6376 94.1544 47.914 93.4718 48.0519 92.6837C48.1879 91.9062 48.1596 91.1703 47.967 90.4761C47.7726 89.7924 47.4142 89.2099 46.892 88.7287C46.3574 88.2562 45.6699 87.9464 44.8293 87.7994C43.9677 87.6487 43.2201 87.7128 42.5866 87.9918C41.953 88.2708 41.4489 88.7078 41.0741 89.3028L39.829 89.085C40.1599 88.4932 40.5892 87.989 41.1169 87.5723C41.6427 87.1662 42.2457 86.8764 42.9257 86.703C43.604 86.5401 44.3371 86.5276 45.1251 86.6654Z" fill="#7B2D2D"/>
<path d="M39.1609 85.8419L30.2678 93.1437L28.9351 92.4467L29.8603 80.9772L31.0371 81.5927L30.7617 84.9155L35.4119 87.3479L37.9842 85.2264L39.1609 85.8419ZM34.4891 88.1111L30.6611 86.1088L30.1798 91.6893L34.4891 88.1111Z" fill="#7B2D2D"/>
<path d="M28.666 80.1159L21.286 87.7137L17.6478 84.1797C16.8673 83.4217 16.4557 82.6054 16.4128 81.731C16.3623 80.8492 16.69 80.0448 17.3961 79.318C17.8717 78.8283 18.3464 78.531 18.8201 78.426C19.2861 78.3137 19.735 78.3184 20.1668 78.4404C20.5911 78.57 20.9782 78.7379 21.3282 78.944L22.3078 73.9399L23.3292 74.9321L22.3339 79.6309L24.9736 82.195L27.8052 79.2798L28.666 80.1159ZM24.1821 83.0098L21.5539 80.4569C21.2784 80.1894 20.9583 79.9602 20.5934 79.7694C20.2286 79.5785 19.8465 79.4973 19.4471 79.5258C19.0326 79.5544 18.6359 79.7639 18.2568 80.1541C17.7886 80.6361 17.5852 81.1746 17.6467 81.7697C17.7007 82.3723 17.9993 82.9375 18.5426 83.4652L21.2167 86.0627L24.1821 83.0098Z" fill="#7B2D2D"/>
<path d="M19.838 70.135L11.6265 74.824L13.4593 78.0336L12.4728 78.5969L8.21215 71.1357L9.19864 70.5724L11.0314 73.782L19.2429 69.0929L19.838 70.135Z" fill="#7B2D2D"/>
<path d="M11.3413 59.4842L9.73482 59.7715L9.46155 58.2438L11.0681 57.9564L11.3413 59.4842Z" fill="#7B2D2D"/>
<path d="M14.9469 44.4849C14.7451 45.5215 14.3352 46.3708 13.7173 47.0329C13.0889 47.693 12.3319 48.1487 11.4462 48.4001C10.5625 48.641 9.62858 48.6656 8.64439 48.474C7.66021 48.2824 6.80375 47.9091 6.07502 47.3543C5.34832 46.789 4.82279 46.0836 4.49841 45.238C4.16356 44.3904 4.09704 43.4483 4.29886 42.4118C4.45175 41.6265 4.73069 40.9473 5.1357 40.3741C5.53023 39.7989 6.01112 39.3383 6.57836 38.9924C7.1456 38.6464 7.76996 38.4257 8.45144 38.3301L8.20988 39.5708C7.52024 39.7082 6.93192 40.0229 6.44492 40.5149C5.95792 41.0069 5.63084 41.6822 5.46368 42.5408C5.30059 43.3784 5.34942 44.1322 5.61014 44.8024C5.86244 45.4601 6.27313 46.0019 6.84221 46.4279C7.4113 46.8538 8.08847 47.1432 8.87373 47.2961C9.64851 47.447 10.3848 47.4327 11.0826 47.2535C11.7699 47.0721 12.3591 46.725 12.8502 46.2121C13.3328 45.6866 13.6557 45.0051 13.8188 44.1675C13.9859 43.309 13.9361 42.5603 13.6693 41.9215C13.4024 41.2828 12.9751 40.7703 12.3874 40.3842L12.629 39.1435C13.2144 39.4857 13.7103 39.9246 14.1168 40.4601C14.5128 40.9936 14.791 41.602 14.9514 42.2853C15.1013 42.9665 15.0998 43.6997 14.9469 44.4849Z" fill="#7B2D2D"/>
<path d="M15.886 38.4717L8.7498 29.4451L9.47138 28.1256L20.9218 29.2626L20.2846 30.4278L16.9675 30.091L14.4496 34.6956L16.5232 37.3065L15.886 38.4717ZM13.7036 33.7588L15.7762 29.9685L10.2056 29.3841L13.7036 33.7588Z" fill="#7B2D2D"/>
<path d="M21.6686 28.2086L14.2062 20.6917L17.8057 17.1183C18.5778 16.3518 19.4014 15.955 20.2764 15.928C21.159 15.8935 21.9573 16.2358 22.6712 16.955C23.1522 17.4395 23.4408 17.9195 23.5371 18.395C23.641 18.863 23.6281 19.3117 23.4983 19.7412C23.361 20.1631 23.1861 20.5471 22.9737 20.8933L27.9592 21.9636L26.9486 22.9668L22.2686 21.8863L19.657 24.479L22.5202 27.3631L21.6686 28.2086ZM18.8567 23.6728L21.4569 21.0914C21.7294 20.8209 21.9644 20.5049 22.1618 20.1436C22.3592 19.7823 22.4473 19.4017 22.4262 19.0019C22.405 18.587 22.2029 18.1865 21.8196 17.8004C21.3461 17.3235 20.8114 17.1104 20.2154 17.161C19.6118 17.2041 19.0413 17.4924 18.5038 18.026L15.8582 20.6525L18.8567 23.6728Z" fill="#7B2D2D"/>
<path d="M31.8692 19.4654L27.3324 11.1688L24.0896 12.9421L23.5446 11.9454L31.0831 7.8231L31.6281 8.81982L28.3853 10.5931L32.9221 18.8897L31.8692 19.4654Z" fill="#7B2D2D"/>
<path d="M42.6578 11.1347L42.4013 9.52295L43.934 9.27898L44.1905 10.8907L42.6578 11.1347Z" fill="#7B2D2D"/>
<path d="M57.6876 14.9964C56.6551 14.7749 55.8138 14.3489 55.1636 13.7184C54.5156 13.0775 54.0744 12.3119 53.84 11.4216C53.616 10.5335 53.6092 9.59928 53.8196 8.61893C54.0299 7.63858 54.4195 6.7894 54.9881 6.07139C55.5672 5.35562 56.2825 4.84365 57.1341 4.53547C57.988 4.21686 58.9311 4.16833 59.9636 4.3899C60.7458 4.55775 61.4196 4.84961 61.9849 5.26548C62.5525 5.67091 63.0038 6.16051 63.3389 6.73425C63.674 7.30799 63.8828 7.93645 63.9653 8.61963L62.7294 8.35443C62.6052 7.66229 62.3018 7.06808 61.8192 6.57177C61.3365 6.07547 60.6676 5.73556 59.8124 5.55204C58.9781 5.373 58.2234 5.40742 57.5484 5.65531C56.886 5.89501 56.3365 6.29528 55.8997 6.85613C55.463 7.41699 55.1607 8.08851 54.9929 8.8707C54.8273 9.64247 54.8274 10.3789 54.9933 11.08C55.1615 11.7706 55.4973 12.3664 56.0008 12.8671C56.5169 13.3597 57.1922 13.6955 58.0265 13.8746C58.8817 14.0581 59.6312 14.0226 60.2749 13.768C60.9187 13.5133 61.4392 13.0959 61.8364 12.5157L63.0723 12.7809C62.719 13.3597 62.2707 13.8471 61.7275 14.2433C61.1866 14.6291 60.573 14.8956 59.8868 15.0429C59.2029 15.1798 58.4698 15.1643 57.6876 14.9964Z" fill="#7B2D2D"/>
<path d="M63.6874 16.0484L72.8441 9.07993L74.1502 9.82574L72.8021 21.2532L71.6488 20.5947L72.0467 17.2843L67.4894 14.6819L64.8407 16.707L63.6874 16.0484ZM68.4398 13.9533L72.1913 16.0955L72.8783 10.5366L68.4398 13.9533Z" fill="#7B2D2D"/>
<path d="M73.8423 22.019L81.4935 14.6944L85.0009 18.3581C85.7533 19.1441 86.135 19.9747 86.1461 20.8501C86.1645 21.7332 85.8078 22.5251 85.0758 23.2258C84.5827 23.6979 84.0975 23.9778 83.6203 24.0655C83.1505 24.1608 82.7021 24.1397 82.275 24.0022C81.8557 23.8572 81.4749 23.6754 81.1327 23.4567L79.972 28.4219L78.9872 27.3933L80.1526 22.7337L77.6078 20.0755L74.6721 22.8858L73.8423 22.019ZM78.4284 19.2899L80.9621 21.9366C81.2277 22.214 81.5393 22.4546 81.8969 22.6586C82.2546 22.8625 82.6335 22.9576 83.0337 22.9437C83.4489 22.9301 83.853 22.7352 84.246 22.359C84.7314 21.8943 84.9542 21.3635 84.9144 20.7667C84.8823 20.1624 84.6044 19.5868 84.0807 19.0397L81.5027 16.3468L78.4284 19.2899Z" fill="#7B2D2D"/>
<path d="M82.4144 32.4084L90.7934 28.0257L89.0804 24.7507L90.087 24.2242L94.0693 31.8376L93.0626 32.3641L91.3496 29.0891L82.9706 33.4718L82.4144 32.4084Z" fill="#7B2D2D"/>
<path d="M90.5471 43.447L92.1634 43.2214L92.378 44.7585L90.7616 44.9841L90.5471 43.447Z" fill="#7B2D2D"/>
</g>
<defs>
<clipPath id="clip0_20_81">
<rect width="101" height="101" fill="white"/>
</clipPath>
</defs>
</svg>
