<svg width="670" height="670" viewBox="0 0 670 670" fill="none" xmlns="http://www.w3.org/2000/svg">
<path d="M650.817 334.817C650.817 509.235 509.418 650.63 335 650.63C160.58 650.63 19.1846 509.235 19.1846 334.817C19.1846 160.395 160.58 18.9999 335 18.9999C509.418 18.9999 650.817 160.395 650.817 334.817Z" fill="#F2E6DC"/>
<path d="M110.297 288.736L416.217 286.705L423.825 278.676L427.745 272.573V88.4439H110.297V288.736Z" fill="#D3BBA3"/>
<path d="M324.069 291.468C323.651 291.468 323.31 291.126 323.31 290.708V118.141C323.31 117.72 323.651 117.378 324.069 117.378C324.491 117.378 324.833 117.72 324.833 118.141V290.708C324.833 291.126 324.491 291.468 324.069 291.468Z" fill="white"/>
<path d="M216.745 291.468C216.325 291.468 215.984 291.126 215.984 290.708V118.141C215.984 117.72 216.325 117.378 216.745 117.378C217.165 117.378 217.506 117.72 217.506 118.141V290.708C217.506 291.126 217.165 291.468 216.745 291.468Z" fill="white"/>
<path d="M110.108 318.081H427.745V275.526H110.108V318.081Z" fill="#F7F1EB"/>
<path d="M408.032 209.708C407.839 209.708 407.642 209.636 407.493 209.487L358.684 160.734C358.387 160.437 358.387 159.957 358.684 159.66C358.981 159.359 359.461 159.359 359.762 159.656L408.571 208.41C408.868 208.707 408.868 209.187 408.571 209.484C408.422 209.636 408.229 209.708 408.032 209.708Z" fill="white"/>
<path d="M358.698 205.185C358.501 205.185 358.308 205.112 358.159 204.964L339.669 186.494C339.372 186.197 339.372 185.713 339.669 185.416C339.966 185.119 340.446 185.119 340.743 185.416L359.233 203.886C359.534 204.183 359.534 204.663 359.233 204.96C359.088 205.112 358.892 205.185 358.698 205.185Z" fill="white"/>
<path d="M413.143 259.567C412.95 259.567 412.753 259.491 412.604 259.343L369.501 216.291C369.204 215.994 369.204 215.514 369.501 215.217C369.798 214.92 370.281 214.92 370.578 215.217L413.682 258.269C413.979 258.566 413.979 259.046 413.682 259.343C413.533 259.491 413.337 259.567 413.143 259.567Z" fill="white"/>
<path d="M149.264 218.08C149.069 218.08 148.874 218.004 148.726 217.856L127.073 196.229C126.776 195.932 126.776 195.449 127.073 195.152C127.369 194.855 127.851 194.855 128.149 195.152L149.801 216.782C150.099 217.075 150.099 217.559 149.802 217.856C149.653 218.004 149.458 218.08 149.264 218.08Z" fill="white"/>
<path d="M351.601 256.027C351.407 256.027 351.214 255.951 351.065 255.803L335.956 240.714C335.659 240.417 335.659 239.937 335.956 239.64C336.253 239.34 336.737 239.34 337.034 239.637L352.139 254.729C352.436 255.026 352.436 255.506 352.139 255.803C351.991 255.951 351.798 256.027 351.601 256.027Z" fill="white"/>
<path d="M313.736 187.858C313.543 187.858 313.346 187.785 313.198 187.637L282.078 156.551C281.781 156.254 281.781 155.771 282.078 155.474C282.375 155.177 282.855 155.177 283.152 155.474L314.275 186.559C314.572 186.856 314.572 187.34 314.275 187.637C314.127 187.785 313.93 187.858 313.736 187.858Z" fill="white"/>
<path d="M164.893 200.422C164.698 200.422 164.503 200.346 164.355 200.197L123.488 159.38C123.19 159.083 123.19 158.599 123.487 158.302C123.784 158.005 124.266 158.005 124.563 158.302L165.43 199.123C165.728 199.42 165.728 199.9 165.431 200.197C165.283 200.346 165.088 200.422 164.893 200.422Z" fill="white"/>
<path d="M271.233 220.774C260.482 207.412 248.986 196.319 238.289 188.434L239.886 213.155L228.953 182.253C216.838 175.187 206.545 173.163 200.761 177.822C188.725 187.519 200.762 222.466 227.646 255.882C254.532 289.299 286.084 308.528 298.119 298.834C310.155 289.14 298.119 254.19 271.233 220.774Z" fill="#F7F1EB"/>
<path d="M343.637 381.979C343.354 381.979 343.081 381.82 342.953 381.547C310.662 314.282 276.182 266.084 252.943 237.496C227.763 206.521 209.99 191.26 209.813 191.108C209.494 190.835 209.456 190.355 209.729 190.034C210.001 189.716 210.481 189.678 210.801 189.951C210.978 190.099 228.831 205.426 254.093 236.494C277.391 265.152 311.961 313.464 344.324 380.891C344.504 381.267 344.345 381.723 343.965 381.906C343.861 381.955 343.747 381.979 343.637 381.979Z" fill="#E6D0BE"/>
<path d="M321.11 205.533L305.624 217.458L321.483 201.033C312.459 169.564 293.609 144.316 280.285 147.268C265.577 150.525 260.248 182.937 268.381 219.658C276.514 256.38 295.032 283.504 309.741 280.247C324.449 276.987 329.778 244.579 321.645 207.857C321.472 207.077 321.293 206.307 321.11 205.533Z" fill="#E6D0BE"/>
<path d="M333.152 357.089C332.841 357.089 332.551 356.899 332.437 356.595C294.793 255.924 282.233 173.198 282.112 172.376C282.05 171.961 282.336 171.571 282.754 171.512C283.165 171.45 283.556 171.737 283.618 172.151C283.739 172.973 296.278 255.551 333.863 356.06C334.009 356.454 333.812 356.892 333.418 357.041C333.328 357.072 333.238 357.089 333.152 357.089Z" fill="#F7F1EB"/>
<path d="M235.977 294.514L249.386 289.406L231.903 290.262C215.697 272.518 208.274 253.765 215.243 246.561C222.935 238.608 245.248 247.735 265.079 266.944C284.913 286.153 294.752 308.169 287.061 316.123C279.37 324.073 257.057 314.948 237.224 295.74C236.803 295.332 236.389 294.925 235.977 294.514Z" fill="#E6D0BE"/>
<path d="M335.428 385.978C335.152 385.978 334.882 385.826 334.748 385.56C296.123 308.608 233.734 260.372 229.455 258.511C229.093 258.418 228.849 258.065 228.895 257.685C228.946 257.268 229.318 256.967 229.742 257.022C232.056 257.302 296.064 305.099 336.108 384.876C336.298 385.253 336.146 385.709 335.77 385.899C335.659 385.954 335.545 385.978 335.428 385.978Z" fill="#F7F1EB"/>
<path d="M332.254 359.358L638.17 355.911L649.701 349.533V19H332.254V359.358Z" fill="#E6D0BE"/>
<path d="M546.025 347.408C545.608 347.408 545.266 347.067 545.266 346.649V159.349C545.266 158.927 545.608 158.586 546.025 158.586C546.447 158.586 546.789 158.927 546.789 159.349V346.649C546.789 347.067 546.447 347.408 546.025 347.408Z" fill="white"/>
<path d="M438.699 347.408C438.281 347.408 437.939 347.067 437.939 346.649V159.349C437.939 158.927 438.281 158.586 438.699 158.586C439.121 158.586 439.462 158.927 439.462 159.349V346.649C439.462 347.067 439.121 347.408 438.699 347.408Z" fill="white"/>
<path d="M332.064 391.213H649.701V345.022H332.064V391.213Z" fill="#D3BBA3"/>
<path d="M629.989 258.669C629.785 258.669 629.578 258.587 629.43 258.424L580.621 205.509C580.334 205.202 580.355 204.718 580.662 204.435C580.973 204.148 581.456 204.169 581.74 204.476L630.549 257.392C630.832 257.699 630.815 258.183 630.504 258.466C630.359 258.604 630.172 258.669 629.989 258.669Z" fill="white"/>
<path d="M580.654 253.759C580.447 253.759 580.243 253.676 580.094 253.513L561.604 233.469C561.317 233.158 561.338 232.678 561.645 232.395C561.956 232.108 562.436 232.129 562.723 232.436L581.21 252.481C581.496 252.792 581.476 253.272 581.168 253.555C581.023 253.693 580.837 253.759 580.654 253.759Z" fill="white"/>
<path d="M635.1 312.783C634.892 312.783 634.689 312.7 634.54 312.538L591.436 265.811C591.153 265.501 591.17 265.021 591.481 264.734C591.789 264.451 592.272 264.471 592.555 264.779L635.659 311.505C635.942 311.816 635.925 312.296 635.614 312.583C635.469 312.718 635.283 312.783 635.1 312.783Z" fill="white"/>
<path d="M371.22 267.752C371.013 267.752 370.809 267.673 370.661 267.511L349.007 244.037C348.724 243.726 348.741 243.246 349.052 242.959C349.359 242.676 349.843 242.693 350.126 243.004L371.78 266.478C372.063 266.785 372.042 267.269 371.735 267.552C371.59 267.687 371.403 267.752 371.22 267.752Z" fill="white"/>
<path d="M573.557 308.939C573.353 308.939 573.15 308.86 572.998 308.698L557.892 292.321C557.609 292.01 557.626 291.53 557.933 291.243C558.244 290.96 558.727 290.981 559.011 291.288L574.117 307.665C574.403 307.972 574.382 308.456 574.075 308.739C573.927 308.874 573.744 308.939 573.557 308.939Z" fill="white"/>
<path d="M535.693 234.954C535.489 234.954 535.282 234.871 535.133 234.709L504.013 200.971C503.727 200.66 503.747 200.18 504.055 199.894C504.365 199.61 504.846 199.631 505.132 199.939L536.252 233.676C536.535 233.987 536.518 234.467 536.207 234.75C536.062 234.885 535.876 234.954 535.693 234.954Z" fill="white"/>
<path d="M386.848 248.589C386.644 248.589 386.44 248.506 386.288 248.343L345.423 204.041C345.139 203.73 345.157 203.25 345.467 202.964C345.775 202.681 346.258 202.698 346.542 203.009L387.407 247.311C387.694 247.622 387.673 248.102 387.366 248.388C387.217 248.523 387.034 248.589 386.848 248.589Z" fill="white"/>
<path d="M640.128 176.195H340.208C339.786 176.195 339.448 175.857 339.448 175.436C339.448 175.014 339.786 174.676 340.208 174.676H640.128C640.549 174.676 640.888 175.014 640.888 175.436C640.888 175.857 640.549 176.195 640.128 176.195Z" fill="white"/>
<path d="M273.302 138.227H637.686V49.0871H273.302V138.227Z" fill="white"/>
<path d="M285.942 127.041H648.803V39.4278H285.942V127.041ZM649.563 128.564H285.179C284.761 128.564 284.419 128.222 284.419 127.804V38.6646C284.419 38.2467 284.761 37.9048 285.179 37.9048H649.563C649.984 37.9048 650.326 38.2467 650.326 38.6646V127.804C650.326 128.222 649.984 128.564 649.563 128.564Z" fill="#D87355"/>
<path d="M557.132 91.3968C557.132 126.796 528.436 155.491 493.034 155.491C457.635 155.491 428.939 126.796 428.939 91.3968C428.939 55.9944 457.635 27.2989 493.034 27.2989C528.436 27.2989 557.132 55.9944 557.132 91.3968Z" fill="#7B2D2D"/>
<path d="M495.736 30.0822C460.81 30.0822 432.401 58.4946 432.401 93.4204C432.401 128.343 460.81 156.755 495.736 156.755C530.658 156.755 559.07 128.343 559.07 93.4204C559.07 58.4946 530.658 30.0822 495.736 30.0822ZM495.736 158.278C459.974 158.278 430.878 129.182 430.878 93.4204C430.878 57.6554 459.974 28.5626 495.736 28.5626C531.497 28.5626 560.593 57.6554 560.593 93.4204C560.593 129.182 531.497 158.278 495.736 158.278Z" fill="white"/>
<path d="M477.282 104.693C476.93 104.693 476.619 104.451 476.54 104.102L467.488 64.5004L456.506 64.604C456.07 64.6351 455.739 64.269 455.735 63.8511C455.732 63.4298 456.07 63.0879 456.488 63.081L468.085 62.9705C468.448 62.9705 468.755 63.2157 468.835 63.5645L477.876 103.118L518.324 99.7162L518.303 74.3534L506.268 74.3637C505.846 74.3637 505.505 74.0218 505.505 73.604C505.505 73.1826 505.846 72.8407 506.264 72.8407L519.063 72.8304C519.484 72.8304 519.826 73.1723 519.826 73.5901L519.847 100.414C519.847 100.811 519.547 101.143 519.149 101.174L477.344 104.693C477.324 104.693 477.303 104.693 477.282 104.693Z" fill="white"/>
<path d="M508.223 102.092C507.826 102.092 507.491 101.785 507.463 101.384L505.557 74.381L470.355 74.3914C469.933 74.3914 469.595 74.0529 469.595 73.6316C469.595 73.2102 469.933 72.8718 470.355 72.8718L506.268 72.8614C506.665 72.8614 506.997 73.1688 507.024 73.5659L508.982 101.277C509.01 101.695 508.696 102.061 508.275 102.089C508.257 102.089 508.24 102.092 508.223 102.092Z" fill="white"/>
<path d="M473.694 109.632C473.691 109.632 473.691 109.632 473.687 109.632C472.088 109.632 470.586 110.257 469.453 111.39C468.324 112.519 467.702 114.025 467.702 115.624C467.706 117.226 468.327 118.728 469.46 119.858C470.593 120.987 472.095 121.609 473.694 121.609H473.698C475.297 121.609 476.802 120.983 477.932 119.851C479.061 118.718 479.683 117.216 479.683 115.617C479.683 114.014 479.057 112.512 477.925 111.383C476.795 110.253 475.29 109.632 473.694 109.632ZM473.694 123.132C471.688 123.132 469.805 122.351 468.386 120.935C466.967 119.519 466.183 117.634 466.183 115.627C466.179 113.621 466.96 111.731 468.376 110.312C469.795 108.893 471.681 108.109 473.687 108.109C473.687 108.109 473.691 108.109 473.694 108.109C475.697 108.109 477.583 108.889 478.999 110.305C480.422 111.721 481.202 113.607 481.206 115.613C481.206 117.62 480.425 119.509 479.009 120.928C477.59 122.348 475.704 123.132 473.698 123.132H473.694Z" fill="white"/>
<path d="M522.451 109.59H522.447C520.848 109.59 519.343 110.215 518.213 111.348C517.084 112.481 516.462 113.986 516.462 115.585C516.466 118.887 519.153 121.571 522.451 121.571C522.454 121.571 522.454 121.571 522.458 121.571C524.057 121.571 525.563 120.945 526.692 119.813C527.821 118.68 528.443 117.174 528.443 115.575C528.443 113.976 527.818 112.47 526.685 111.341C525.552 110.212 524.05 109.59 522.451 109.59ZM522.451 123.094C518.314 123.094 514.943 119.726 514.939 115.585C514.939 113.579 515.72 111.693 517.136 110.274C518.555 108.855 520.441 108.071 522.447 108.067H522.451C524.457 108.067 526.34 108.848 527.759 110.264C529.178 111.683 529.962 113.569 529.966 115.575C529.966 117.582 529.185 119.467 527.769 120.887C526.35 122.306 524.464 123.09 522.458 123.094C522.458 123.094 522.454 123.094 522.451 123.094Z" fill="white"/>
<path d="M480.442 116.328C480.025 116.328 479.683 115.989 479.683 115.568C479.683 115.147 480.021 114.808 480.442 114.805L515.648 114.777C516.069 114.777 516.411 115.119 516.411 115.537C516.411 115.958 516.069 116.3 515.651 116.3L480.446 116.328C480.442 116.328 480.442 116.328 480.442 116.328Z" fill="white"/>
<path d="M475.671 109.925C475.595 109.925 475.519 109.914 475.446 109.89C475.046 109.766 474.818 109.341 474.942 108.937L476.555 103.708C476.679 103.308 477.104 103.08 477.508 103.204C477.909 103.328 478.133 103.757 478.009 104.157L476.396 109.386C476.296 109.714 475.995 109.925 475.671 109.925Z" fill="white"/>
<path d="M498.046 102.949C497.673 102.949 497.349 102.672 497.293 102.293L493.298 73.8871C493.239 73.4692 493.529 73.0859 493.943 73.0271C494.358 72.9684 494.745 73.2585 494.803 73.6764L498.799 102.078C498.858 102.496 498.571 102.88 498.153 102.938C498.119 102.945 498.081 102.949 498.046 102.949Z" fill="white"/>
<path d="M487.15 103.864C486.787 103.864 486.466 103.609 486.4 103.239L481.006 73.7596C480.93 73.3452 481.206 72.948 481.617 72.8721C482.035 72.7995 482.429 73.0689 482.505 73.4833L487.899 102.966C487.972 103.381 487.699 103.774 487.288 103.85C487.239 103.861 487.195 103.864 487.15 103.864Z" fill="white"/>
<path d="M474.002 90.3467C473.598 90.3467 473.263 90.029 473.242 89.6214C473.221 89.2036 473.546 88.8478 473.967 88.8271L519.043 86.7135C519.458 86.7031 519.817 87.0209 519.837 87.4387C519.858 87.8601 519.534 88.2159 519.112 88.2366L474.036 90.3467C474.026 90.3467 474.016 90.3467 474.002 90.3467Z" fill="white"/>
<path d="M210.901 513.808H632.313V484.805H210.901V513.808Z" fill="white"/>
<path d="M19.1846 334.817H332.254V316.962H19.1846V334.817Z" fill="white"/>
<path d="M635.1 461.548H138.437C138.017 461.548 137.676 461.206 137.676 460.785C137.676 460.367 138.017 460.025 138.437 460.025H635.1C635.518 460.025 635.859 460.367 635.859 460.785C635.859 461.206 635.518 461.548 635.1 461.548Z" fill="white"/>
<path d="M550.791 592.031H171.748C171.328 592.031 170.987 591.692 170.987 591.271C170.987 590.849 171.328 590.511 171.748 590.511H550.791C551.213 590.511 551.555 590.849 551.555 591.271C551.555 591.692 551.213 592.031 550.791 592.031Z" fill="white"/>
<path d="M529.203 613.363H298.174C297.756 613.363 297.415 613.025 297.415 612.603C297.415 612.182 297.756 611.844 298.174 611.844H529.203C529.624 611.844 529.966 612.182 529.966 612.603C529.966 613.025 529.624 613.363 529.203 613.363Z" fill="white"/>
<path d="M259.964 407.11H649.701V391.214H259.964V407.11Z" fill="white"/>
<path d="M232.79 469.972C238.138 484.031 243.116 499.714 247.122 516.95C259.129 568.598 261.349 649.705 261.349 649.705C236.4 649.173 201.21 650.237 176.262 649.705C174.404 623.164 174.932 593.654 173.074 567.113C168.827 579.853 164.581 592.59 160.334 605.33C155.556 619.663 151.963 649.705 151.963 649.705C126.484 648.907 92.3924 650.655 66.9131 649.857C66.9131 649.857 86.5831 485.865 101.395 465.126C133.243 470.966 200.941 464.135 232.79 469.972Z" fill="#7B2D2D"/>
<path d="M245.236 373.566C265.058 391.241 327.858 440.347 303.496 461.466C278.772 482.902 231.722 435.764 210.901 419.491C222.346 404.182 233.791 388.875 245.236 373.566Z" fill="#84524D"/>
<path d="M286.087 415.489C286.091 415.489 286.091 415.489 286.091 415.489C333.277 425.497 366.949 431.696 377.268 434.017C378.349 434.259 380.259 434.68 382.5 435.878C390.802 440.32 390.35 448.325 396.95 456.979C404.437 466.798 414.211 468.086 413.527 471.167C413.05 473.304 409.224 473.857 401.65 472.051C407.248 474.088 414.718 477.176 413.586 480.267C412.087 483.765 402.883 481.165 397.392 479.321C404.036 481.555 406.903 484.729 405.843 486.293C404.171 488.759 398.614 488.227 389.946 484.936H389.943C395.296 488.883 396.007 490.638 394.729 491.791C392.401 493.901 385.325 491.059 379.454 487.588C372.844 483.682 369.073 478.36 366.776 474.948C366.776 474.945 366.773 474.945 366.773 474.945C332.997 471.36 311.36 467.603 283.936 466.76C266.457 466.225 262.168 426.789 286.087 415.489Z" fill="#84524D"/>
<path d="M305.433 420.006C305.382 420.006 305.33 420.002 305.278 419.992C298.623 418.618 291.989 417.229 285.562 415.865C285.151 415.779 284.888 415.375 284.978 414.964C285.064 414.553 285.468 414.287 285.879 414.377C292.303 415.737 298.934 417.126 305.585 418.5C305.996 418.586 306.262 418.987 306.176 419.401C306.103 419.761 305.786 420.006 305.433 420.006Z" fill="#363E44"/>
<path d="M389.045 450.456C401.132 452.22 405.87 450.297 406.088 448.37C406.454 445.134 396.75 439.401 379.406 434.593C381.695 439.252 386.755 445.793 389.045 450.456Z" fill="#84524D"/>
<path d="M382.666 470.12C382.282 470.12 381.951 469.833 381.909 469.443C381.723 467.675 380.863 463.196 376.988 459.753C374.249 457.318 371.238 456.454 369.193 456.161C368.779 456.099 368.489 455.715 368.548 455.297C368.61 454.883 369 454.596 369.411 454.652C371.663 454.98 374.978 455.929 378 458.613C382.269 462.412 383.215 467.337 383.422 469.281C383.467 469.699 383.166 470.072 382.749 470.117C382.721 470.12 382.693 470.12 382.666 470.12Z" fill="#363E44"/>
<path d="M392.812 451.868C392.533 451.868 392.267 451.716 392.132 451.45C391.462 450.128 390.878 448.85 390.315 447.613C389.148 445.047 388.046 442.623 386.454 440.596C386.195 440.264 386.254 439.788 386.582 439.529C386.914 439.27 387.394 439.325 387.653 439.656C389.359 441.825 390.495 444.329 391.7 446.981C392.256 448.204 392.833 449.468 393.489 450.76C393.679 451.136 393.531 451.595 393.154 451.785C393.044 451.841 392.926 451.868 392.812 451.868Z" fill="#363E44"/>
<path d="M401.557 472.469C401.453 472.469 401.346 472.448 401.242 472.399C399.212 471.477 397.316 470.286 395.61 468.866C394.436 467.889 393.341 466.794 392.363 465.613C392.097 465.289 392.142 464.809 392.464 464.539C392.788 464.273 393.268 464.318 393.538 464.643C394.456 465.751 395.482 466.777 396.584 467.699C398.186 469.029 399.965 470.148 401.874 471.015C402.254 471.191 402.424 471.64 402.251 472.023C402.123 472.303 401.847 472.469 401.557 472.469Z" fill="#363E44"/>
<path d="M398.169 479.997C398.065 479.997 397.958 479.973 397.854 479.928C395.824 479.003 393.928 477.815 392.222 476.395C391.048 475.414 389.956 474.32 388.975 473.139C388.709 472.817 388.754 472.337 389.079 472.068C389.4 471.799 389.88 471.847 390.15 472.168C391.068 473.277 392.094 474.306 393.196 475.224C394.798 476.558 396.577 477.673 398.486 478.543C398.866 478.716 399.036 479.168 398.863 479.552C398.735 479.832 398.459 479.997 398.169 479.997Z" fill="#363E44"/>
<path d="M389.815 485.564C389.707 485.564 389.6 485.544 389.5 485.499C387.47 484.573 385.574 483.385 383.867 481.962C382.693 480.985 381.599 479.89 380.621 478.709C380.352 478.385 380.4 477.904 380.721 477.639C381.046 477.369 381.526 477.414 381.792 477.739C382.714 478.847 383.74 479.876 384.841 480.795C386.444 482.128 388.222 483.244 390.129 484.111C390.512 484.287 390.681 484.736 390.509 485.119C390.381 485.399 390.105 485.564 389.815 485.564Z" fill="#363E44"/>
<path d="M74.0702 384.856C56.2488 399.209 3.41673 433.216 29.2783 467.817C39.0346 480.868 83.0052 438.962 101.626 425.86C92.4407 412.194 83.2556 398.525 74.0702 384.856Z" fill="#84524D"/>
<path d="M58.1562 392.474C64.7014 386.423 113.773 342.539 180.509 353.459C218.994 359.755 243.446 370.803 257.585 379.768C243.47 405.311 238.899 410.964 230.937 420.872C235.006 441.573 239.076 462.277 243.145 482.978C212.889 482.712 115.219 479.793 84.4319 478.73C89.9168 461.213 95.4021 451.844 100.887 434.327C96.6406 437.867 92.3937 441.404 88.1476 444.944C78.3274 428.57 66.9148 407.866 58.1562 392.474Z" fill="white"/>
<path d="M273.478 519.478H83.0791V378.294H273.478V519.478Z" fill="#D99C52"/>
<path d="M130.191 512.043C129.771 512.043 129.43 511.701 129.43 511.283V386.492C129.43 386.071 129.771 385.729 130.191 385.729C130.611 385.729 130.952 386.071 130.952 386.492V511.283C130.952 511.701 130.611 512.043 130.191 512.043Z" fill="#EDBE80"/>
<path d="M215.208 512.043C214.788 512.043 214.447 511.701 214.447 511.283V428.26C214.447 427.842 214.788 427.5 215.208 427.5C215.628 427.5 215.969 427.842 215.969 428.26V511.283C215.969 511.701 215.628 512.043 215.208 512.043Z" fill="#EDBE80"/>
<path d="M233.251 424.008C233.053 424.008 232.858 423.929 232.712 423.784L223.48 414.539L215.823 422.206C215.537 422.492 215.032 422.492 214.746 422.206L206.831 414.28L197.702 423.421C197.483 423.642 197.156 423.704 196.872 423.587C196.588 423.47 196.402 423.193 196.402 422.886V380.165C196.402 379.744 196.743 379.402 197.164 379.402C197.584 379.402 197.924 379.744 197.924 380.165V421.045L206.293 412.663C206.578 412.377 207.084 412.377 207.369 412.663L215.284 420.589L222.942 412.922C223.084 412.781 223.278 412.698 223.48 412.698C223.682 412.698 223.876 412.781 224.018 412.922L232.49 421.408V380.165C232.49 379.744 232.83 379.402 233.251 379.402C233.671 379.402 234.012 379.744 234.012 380.165V423.245C234.012 423.552 233.826 423.832 233.541 423.95C233.448 423.988 233.349 424.008 233.251 424.008Z" fill="#F7F1EB"/>
<path d="M42.9734 425.673C64.1754 427.089 114.27 427.956 119.157 428.235C128.292 428.76 177.243 432.836 177.421 439.964C177.506 443.369 168.04 443.01 164.843 442.796C167.34 444.239 177.527 448.756 176.629 452.466C175.574 456.827 162.61 453.308 162.374 453.377C165.058 454.59 175.944 458.982 175.379 461.79C174.644 465.448 163.291 464.398 159.906 463.928C160.197 464.439 171.137 467.102 170.445 471.495C169.938 474.724 159.523 473.743 155.004 473.332C146.888 472.876 52.2023 472.659 34.6103 470.372C27.7236 469.478 33.6592 432.311 42.9734 425.673Z" fill="#84524D"/>
<path d="M88.6392 427.966C88.6312 427.966 88.6226 427.966 88.6143 427.966C77.8251 427.61 49.6976 426.36 42.863 425.977C42.4434 425.956 42.1223 425.593 42.1457 425.176C42.1689 424.754 42.5329 424.433 42.9477 424.457C49.7767 424.837 77.8824 426.091 88.6641 426.443C89.0844 426.457 89.4135 426.809 89.3997 427.23C89.3862 427.641 89.0481 427.966 88.6392 427.966Z" fill="#363E44"/>
<path d="M164.975 443.224C164.875 443.224 164.773 443.203 164.675 443.162C162.947 442.419 161.154 441.787 159.346 441.29C156.096 440.395 152.725 439.905 149.326 439.829C148.906 439.819 148.573 439.473 148.583 439.052C148.591 438.631 148.928 438.289 149.36 438.309C152.884 438.385 156.379 438.897 159.749 439.822C161.625 440.34 163.485 440.993 165.277 441.763C165.663 441.929 165.841 442.378 165.675 442.765C165.551 443.051 165.27 443.224 164.975 443.224Z" fill="#363E44"/>
<path d="M162.57 453.916C162.496 453.916 162.421 453.906 162.346 453.882C161.969 453.768 161.584 453.654 161.19 453.547C157.94 452.652 154.569 452.162 151.17 452.086C150.75 452.076 150.417 451.727 150.426 451.305C150.436 450.888 150.785 450.556 151.204 450.563C154.728 450.642 158.223 451.15 161.593 452.079C162.002 452.189 162.402 452.307 162.793 452.428C163.195 452.552 163.421 452.977 163.297 453.378C163.197 453.706 162.895 453.916 162.57 453.916Z" fill="#363E44"/>
<path d="M159.692 464.577C159.646 464.577 159.6 464.57 159.553 464.563C157.386 464.163 155.163 463.935 152.946 463.886C152.526 463.876 152.192 463.527 152.202 463.106C152.211 462.688 152.562 462.322 152.98 462.363C155.278 462.415 157.582 462.65 159.829 463.068C160.243 463.144 160.516 463.541 160.44 463.952C160.372 464.322 160.052 464.577 159.692 464.577Z" fill="#363E44"/>
<path d="M609.405 558.742L449.001 579.439L433.653 460.495L594.057 439.798L609.405 558.742Z" fill="#D99C52"/>
<path d="M487.798 568.174C487.421 568.174 487.093 567.894 487.045 567.507L473.479 462.377C473.424 461.963 473.721 461.58 474.135 461.528C474.55 461.473 474.933 461.766 474.988 462.184L488.554 567.314C488.609 567.732 488.312 568.111 487.898 568.167C487.863 568.17 487.832 568.174 487.798 568.174Z" fill="#EDBE80"/>
<path d="M559.422 558.932C559.046 558.932 558.718 558.652 558.67 558.265L549.645 488.327C549.59 487.91 549.884 487.53 550.302 487.474C550.716 487.416 551.099 487.716 551.155 488.131L560.179 558.072C560.23 558.49 559.937 558.87 559.519 558.925C559.488 558.928 559.453 558.932 559.422 558.932Z" fill="#EDBE80"/>
<path d="M534.612 486.421C534.546 486.421 534.481 486.414 534.415 486.394C534.118 486.314 533.897 486.062 533.859 485.758L529.214 449.769C529.162 449.351 529.456 448.971 529.874 448.916C530.285 448.86 530.671 449.157 530.723 449.572L535.133 483.738L541.101 475.988C541.225 475.829 541.408 475.722 541.609 475.698C541.806 475.674 542.009 475.726 542.172 475.85L549.611 481.597L555.157 474.396C555.278 474.237 555.461 474.13 555.661 474.106C555.862 474.078 556.065 474.133 556.224 474.258L564.064 480.315L559.616 445.845C559.564 445.427 559.857 445.048 560.272 444.992C560.686 444.937 561.073 445.234 561.125 445.652L565.808 481.945C565.849 482.249 565.701 482.55 565.431 482.702C565.165 482.854 564.834 482.833 564.589 482.643L555.896 475.929L550.35 483.13C550.225 483.289 550.046 483.396 549.845 483.42C549.642 483.444 549.441 483.392 549.283 483.268L541.844 477.521L535.216 486.124C535.071 486.314 534.847 486.421 534.612 486.421Z" fill="#F7F1EB"/>
<path d="M580.938 441.456L477.304 454.828L467.389 377.983L571.023 364.611L580.938 441.456Z" fill="#DDA766"/>
<path d="M502.37 447.821C501.993 447.821 501.665 447.541 501.617 447.154L492.852 379.233C492.8 378.815 493.093 378.435 493.508 378.38C493.922 378.322 494.309 378.622 494.361 379.04L503.126 446.961C503.178 447.379 502.884 447.759 502.47 447.814C502.435 447.817 502.404 447.821 502.37 447.821Z" fill="#EEBC7F"/>
<path d="M548.643 441.849C548.266 441.849 547.938 441.57 547.89 441.186L542.06 395.997C542.005 395.579 542.299 395.199 542.717 395.144C543.131 395.088 543.514 395.385 543.57 395.803L549.399 440.989C549.454 441.407 549.157 441.787 548.743 441.842C548.708 441.846 548.677 441.849 548.643 441.849Z" fill="#EEBC7F"/>
<path d="M532.615 395.002C532.55 395.002 532.484 394.992 532.418 394.974C532.121 394.895 531.9 394.643 531.862 394.339L528.861 371.086C528.806 370.668 529.099 370.288 529.517 370.233C529.928 370.174 530.315 370.475 530.37 370.889L533.133 392.319L536.594 387.825C536.718 387.667 536.901 387.563 537.101 387.535C537.302 387.511 537.502 387.566 537.664 387.691L542.254 391.238L545.677 386.8C545.797 386.637 545.98 386.534 546.181 386.506C546.381 386.482 546.585 386.537 546.744 386.662L551.292 390.177L548.501 368.551C548.45 368.133 548.743 367.753 549.161 367.698C549.572 367.643 549.959 367.94 550.011 368.354L553.036 391.804C553.077 392.111 552.929 392.408 552.663 392.564C552.394 392.716 552.062 392.691 551.817 392.505L546.416 388.33L542.997 392.771C542.872 392.93 542.689 393.033 542.489 393.061C542.289 393.085 542.088 393.03 541.929 392.909L537.336 389.359L533.22 394.705C533.071 394.895 532.847 395.002 532.615 395.002Z" fill="#F7F1EB"/>
<path d="M451.965 580.99C451.613 580.99 451.302 580.748 451.223 580.399L416.466 428.346L373.051 428.761C373.048 428.761 373.044 428.761 373.044 428.761C372.627 428.761 372.288 428.426 372.281 428.008C372.278 427.586 372.616 427.245 373.038 427.241L417.063 426.82C417.067 426.82 417.07 426.82 417.07 426.82C417.426 426.82 417.733 427.065 417.813 427.41L452.559 579.415L609.948 566.174L609.865 465.779L562.03 465.817C562.026 465.817 562.026 465.817 562.026 465.817C561.608 465.817 561.267 465.479 561.267 465.057C561.267 464.64 561.605 464.298 562.026 464.298L610.625 464.256C610.828 464.256 611.022 464.336 611.163 464.481C611.305 464.622 611.388 464.816 611.388 465.016L611.471 566.875C611.471 567.269 611.167 567.6 610.773 567.631L452.031 580.986C452.007 580.99 451.986 580.99 451.965 580.99Z" fill="#363E44"/>
<path d="M569.454 571.106C569.057 571.106 568.722 570.798 568.694 570.398L561.318 465.89L425.662 465.931C425.244 465.931 424.902 465.589 424.902 465.168C424.902 464.75 425.244 464.408 425.662 464.408L562.026 464.367C562.426 464.367 562.758 464.674 562.785 465.075L570.214 570.291C570.242 570.712 569.927 571.075 569.506 571.106C569.489 571.106 569.472 571.106 569.454 571.106Z" fill="#363E44"/>
<path d="M438.341 599.732C438.334 599.732 438.327 599.732 438.32 599.732C424.603 599.742 413.455 610.911 413.465 624.625C413.472 631.27 416.065 637.514 420.766 642.207C425.463 646.897 431.703 649.477 438.337 649.477C438.344 649.477 438.351 649.477 438.358 649.477C452.076 649.467 463.224 638.301 463.21 624.584C463.206 617.943 460.613 611.699 455.912 607.002C451.216 602.315 444.975 599.732 438.341 599.732ZM438.337 651C423.794 651 411.956 639.175 411.945 624.625C411.938 617.577 414.677 610.946 419.661 605.955C424.641 600.968 431.268 598.216 438.317 598.209C438.324 598.209 438.334 598.209 438.341 598.209C445.383 598.209 452.003 600.951 456.987 605.928C461.977 610.908 464.729 617.532 464.733 624.584C464.74 631.632 461.998 638.263 457.018 643.254C452.038 648.244 445.41 650.993 438.362 651C438.355 651 438.344 651 438.337 651Z" fill="#363E44"/>
<path d="M623.488 599.583C623.481 599.583 623.475 599.583 623.468 599.583C616.823 599.587 610.579 602.18 605.886 606.881C601.192 611.584 598.609 617.832 598.616 624.473C598.626 638.184 609.785 649.325 623.488 649.328C623.495 649.328 623.502 649.328 623.509 649.328C637.223 649.318 648.371 638.149 648.361 624.435C648.354 617.79 645.764 611.546 641.06 606.853C636.367 602.163 630.123 599.583 623.488 599.583ZM623.488 650.848C616.447 650.848 609.823 648.109 604.839 643.133C599.849 638.153 597.1 631.525 597.093 624.477C597.089 617.424 599.828 610.794 604.808 605.807C609.792 600.816 616.415 598.064 623.468 598.06C623.475 598.06 623.481 598.06 623.488 598.06C630.53 598.06 637.154 600.799 642.137 605.776C647.124 610.756 649.877 617.383 649.884 624.432C649.887 631.484 647.149 638.115 642.169 643.102C637.185 648.092 630.561 650.844 623.509 650.848C623.502 650.848 623.495 650.848 623.488 650.848Z" fill="#363E44"/>
<path d="M463.972 625.167C463.551 625.167 463.212 624.826 463.209 624.408C463.209 623.986 463.551 623.644 463.972 623.644L597.652 623.537C598.074 623.537 598.412 623.876 598.416 624.297C598.416 624.715 598.074 625.057 597.652 625.057L463.972 625.167Z" fill="#363E44"/>
<path d="M445.841 600.851C445.769 600.851 445.693 600.841 445.617 600.817C445.216 600.692 444.992 600.267 445.113 599.867L451.239 580.005C451.36 579.601 451.788 579.377 452.189 579.501C452.59 579.626 452.818 580.05 452.693 580.451L446.57 600.312C446.467 600.64 446.166 600.851 445.841 600.851Z" fill="#363E44"/>
<path d="M530.813 574.355C530.44 574.355 530.112 574.082 530.06 573.702L514.882 465.841C514.823 465.427 515.113 465.04 515.527 464.981C515.942 464.919 516.329 465.213 516.387 465.63L531.566 573.488C531.624 573.906 531.334 574.29 530.92 574.348C530.882 574.355 530.847 574.355 530.813 574.355Z" fill="#363E44"/>
<path d="M489.432 577.836C489.069 577.836 488.752 577.581 488.683 577.215L468.203 465.264C468.127 464.85 468.4 464.453 468.814 464.38C469.232 464.308 469.626 464.577 469.699 464.992L490.182 576.939C490.258 577.353 489.981 577.75 489.57 577.826C489.522 577.833 489.477 577.836 489.432 577.836Z" fill="#363E44"/>
<path d="M439.51 526.517C439.106 526.517 438.771 526.199 438.751 525.791C438.733 525.37 439.058 525.014 439.476 524.994L610.63 516.974C611.052 516.964 611.408 517.282 611.428 517.7C611.446 518.121 611.124 518.477 610.703 518.497L439.548 526.513C439.535 526.517 439.524 526.517 439.51 526.517Z" fill="#363E44"/>
<path d="M139.536 306.743C143.373 310.383 143.975 315.978 140.879 319.245C137.783 322.512 132.163 322.208 128.325 318.571C124.487 314.935 123.886 309.336 126.982 306.073C130.078 302.806 135.698 303.106 139.536 306.743Z" fill="#84524D"/>
<path d="M177.471 298.051C175.6 302.996 177.496 308.297 181.705 309.889C185.914 311.481 190.843 308.763 192.713 303.815C194.584 298.869 192.688 293.571 188.479 291.979C184.27 290.387 179.341 293.105 177.471 298.051Z" fill="#84524D"/>
<path d="M157.256 374.816C147.814 374.381 140.511 366.376 140.944 356.934L142.53 308.397L176.723 309.965L175.136 358.501C174.703 367.943 166.698 375.248 157.256 374.816Z" fill="#84524D"/>
<path d="M170.626 346.839C143.895 353.197 134.944 308.269 134.944 308.269L182.523 298.216C182.523 298.216 196.544 340.674 170.626 346.839Z" fill="#363E44"/>
<path d="M159.093 290.542C160.765 300.029 154.43 309.074 144.944 310.746C135.458 312.417 126.413 306.083 124.742 296.596C123.07 287.11 129.405 278.065 138.891 276.393C148.377 274.722 157.422 281.059 159.093 290.542Z" fill="#363E44"/>
<path d="M182.633 301.767C186.042 316.641 174.915 310.463 162.256 313.364C149.597 316.265 140.199 327.147 136.79 312.272C133.382 297.398 141.607 287.11 154.266 284.209C166.925 281.308 179.224 286.892 182.633 301.767Z" fill="#84524D"/>
<path d="M183.913 309.813C183.911 309.813 183.91 309.813 183.909 309.813C183.489 309.813 183.15 309.472 183.152 309.05C183.165 306.657 182.895 304.236 182.35 301.853C181.864 299.733 181.164 297.671 180.27 295.726C180.095 295.343 180.262 294.891 180.644 294.718C181.025 294.542 181.478 294.708 181.654 295.091C182.59 297.129 183.324 299.291 183.833 301.515C184.405 304.012 184.688 306.55 184.674 309.057C184.672 309.478 184.331 309.813 183.913 309.813Z" fill="#363E44"/>
<path d="M138.746 319.991C138.464 319.991 138.193 319.832 138.061 319.563C136.983 317.342 136.152 314.973 135.59 312.521C135.071 310.255 134.789 307.945 134.753 305.659C134.746 305.237 135.082 304.892 135.501 304.885C135.952 304.878 136.268 305.213 136.275 305.635C136.309 307.817 136.578 310.017 137.074 312.182C137.61 314.521 138.402 316.779 139.43 318.896C139.614 319.276 139.456 319.732 139.078 319.915C138.971 319.967 138.858 319.991 138.746 319.991Z" fill="#363E44"/>
<path d="M162.581 314.662C162.397 314.662 162.213 314.596 162.068 314.462C161.757 314.179 161.736 313.695 162.019 313.388C162.347 313.029 162.725 312.511 162.659 312.093C162.622 311.858 162.451 311.682 162.124 311.364C161.745 310.994 161.273 310.532 160.966 309.762C160.69 309.071 160.619 308.304 160.753 307.482C160.821 307.068 161.21 306.785 161.627 306.854C162.042 306.919 162.323 307.31 162.255 307.727C162.166 308.273 162.208 308.767 162.38 309.199C162.567 309.668 162.869 309.962 163.187 310.273C163.59 310.666 164.046 311.112 164.163 311.858C164.29 312.673 163.947 313.533 163.143 314.413C162.993 314.579 162.787 314.662 162.581 314.662Z" fill="#363E44"/>
<path d="M158.981 322.046C158.17 322.046 157.222 321.911 156.236 321.497C155.231 321.072 154.319 320.402 153.599 319.556C153.326 319.234 153.364 318.754 153.684 318.482C154.002 318.209 154.484 318.247 154.756 318.568C155.324 319.234 156.04 319.759 156.828 320.094C158.339 320.73 159.748 320.519 160.453 320.336C160.861 320.233 161.275 320.478 161.38 320.885C161.486 321.293 161.241 321.707 160.834 321.811C160.399 321.925 159.753 322.046 158.981 322.046Z" fill="white"/>
<path d="M132.351 304.937C132.351 304.937 145.04 304.591 155.201 287.216C155.201 287.216 184.506 314.164 196.209 273.378C196.209 273.378 186.312 280.005 179.236 273.533C167.977 263.242 144.297 257.495 139.469 281.014L132.351 304.937Z" fill="#363E44"/>
<path d="M174.031 299.404L173.975 299.411C173.972 299.532 173.929 299.698 173.806 299.722C173.701 299.926 173.698 300.219 173.642 300.427C173.542 300.796 172.974 300.617 173.074 300.247C173.142 299.998 172.451 300.603 172.136 300.817C171.132 301.49 170.101 302.119 169.049 302.716C168.559 302.996 168.068 303.279 167.568 303.538C167.167 303.749 165.86 304.516 165.733 304.474C164.598 306.118 164.089 307.541 164.089 307.541C164.089 307.541 166.358 307.986 169.052 307.517C169.052 307.482 169.052 307.444 169.05 307.406C169.03 307.033 174.838 304.184 175.066 304.415C177.286 302.167 178.247 299.491 178.247 299.491C178.247 299.491 176.385 299.125 174.031 299.404Z" fill="white"/>
<path d="M169.617 300.786C167.9 301.763 166.626 303.186 165.736 304.471C166.139 305.59 166.939 306.57 168.073 307.168C168.365 307.323 168.665 307.444 168.97 307.534C170.186 307.33 171.494 306.943 172.721 306.246C173.609 305.742 174.372 305.113 175.031 304.453C175.661 302.689 175.227 300.741 173.976 299.411C172.595 299.58 171.052 299.971 169.617 300.786Z" fill="#363E44"/>
<path d="M144.033 306.701H144.034L144.088 306.684C144.143 306.791 144.253 306.922 144.374 306.891C144.558 307.029 144.689 307.292 144.828 307.454C145.079 307.744 145.513 307.337 145.262 307.047C145.093 306.85 145.978 307.095 146.354 307.15C147.551 307.32 148.753 307.44 149.96 307.52C150.523 307.558 151.088 307.599 151.652 307.617C152.104 307.63 153.615 307.755 153.711 307.662C155.448 308.649 156.525 309.709 156.525 309.709C156.525 309.709 154.674 311.094 152.044 311.844C152.029 311.813 152.012 311.778 151.998 311.744C151.854 311.402 145.384 311.357 145.281 311.668C142.304 310.604 140.274 308.611 140.274 308.611C140.274 308.611 141.793 307.475 144.033 306.701Z" fill="white"/>
<path d="M148.611 306.028C150.581 306.163 152.346 306.888 153.707 307.658C153.831 308.843 153.536 310.072 152.775 311.105C152.579 311.371 152.36 311.609 152.125 311.823C150.942 312.169 149.596 312.39 148.188 312.293C147.169 312.224 146.209 311.992 145.328 311.682C143.994 310.366 143.538 308.425 144.088 306.684C145.404 306.235 146.963 305.918 148.611 306.028Z" fill="#363E44"/>
<path d="M421.912 383.958C421.891 383.958 421.87 383.958 421.85 383.958L337.479 376.857C337.086 376.826 336.782 376.494 336.782 376.101L336.827 321.963C336.827 321.545 337.165 321.203 337.586 321.203L363.416 321.224C363.837 321.224 364.179 321.566 364.179 321.987C364.175 322.405 363.837 322.747 363.416 322.747L338.346 322.726L338.305 375.4L421.318 382.383L439.718 301.898C439.798 301.552 440.105 301.307 440.457 301.307C440.461 301.307 440.464 301.307 440.464 301.307L463.866 301.528C464.287 301.532 464.625 301.877 464.618 302.298C464.615 302.716 464.252 303.068 463.852 303.051L441.065 302.834L422.654 383.367C422.575 383.716 422.264 383.958 421.912 383.958Z" fill="#BC8271"/>
<path d="M359.469 378.705C359.451 378.705 359.434 378.705 359.417 378.705C358.995 378.674 358.681 378.311 358.709 377.89L362.656 321.97C362.687 321.569 363.019 321.262 363.416 321.262L435.892 321.282C436.313 321.282 436.652 321.624 436.652 322.046C436.652 322.464 436.313 322.805 435.892 322.805L364.124 322.785L360.228 377.997C360.201 378.401 359.866 378.705 359.469 378.705Z" fill="#BC8271"/>
<path d="M429.154 393.921C422.067 393.921 416.296 399.681 416.293 406.772C416.289 410.208 417.626 413.44 420.053 415.872C422.478 418.303 425.71 419.643 429.143 419.646C429.147 419.646 429.154 419.646 429.157 419.646C432.586 419.646 435.815 418.31 438.243 415.885C440.675 413.458 442.015 410.229 442.018 406.792C442.025 399.702 436.258 393.928 429.164 393.921C429.164 393.921 429.157 393.921 429.154 393.921ZM429.157 421.169C429.15 421.169 429.147 421.169 429.143 421.169C425.299 421.166 421.69 419.667 418.976 416.946C416.261 414.228 414.766 410.615 414.77 406.772C414.776 398.842 421.228 392.398 429.157 392.398C429.161 392.398 429.164 392.398 429.167 392.398C437.1 392.405 443.548 398.863 443.541 406.796C443.538 410.636 442.039 414.249 439.317 416.963C436.603 419.674 432.994 421.169 429.157 421.169Z" fill="#BC8271"/>
<path d="M317.887 406.692C317.88 413.786 323.648 419.56 330.738 419.567C330.741 419.567 330.745 419.567 330.748 419.567C334.181 419.567 337.41 418.231 339.838 415.806C342.269 413.379 343.609 410.149 343.613 406.713C343.616 403.277 342.28 400.048 339.852 397.617C337.424 395.185 334.195 393.842 330.759 393.842C330.755 393.842 330.752 393.842 330.748 393.842C327.315 393.842 324.09 395.175 321.662 397.599C319.231 400.027 317.891 403.256 317.887 406.692ZM330.748 421.09C330.745 421.09 330.741 421.09 330.738 421.09C322.805 421.083 316.357 414.622 316.364 406.692C316.368 402.849 317.867 399.24 320.588 396.522C323.302 393.811 326.911 392.319 330.748 392.319C330.752 392.319 330.755 392.319 330.762 392.319C334.602 392.322 338.215 393.821 340.929 396.539C343.644 399.26 345.139 402.873 345.136 406.717C345.129 414.643 338.678 421.09 330.748 421.09Z" fill="#BC8271"/>
<path d="M415.53 407.438L344.48 407.379C344.059 407.379 343.72 407.037 343.72 406.619C343.72 406.198 344.062 405.86 344.48 405.86C344.48 405.86 344.48 405.86 344.483 405.86L415.533 405.915C415.951 405.915 416.293 406.257 416.293 406.678C416.293 407.096 415.951 407.438 415.53 407.438Z" fill="#BC8271"/>
<path d="M425.165 394.515C424.84 394.515 424.54 394.304 424.44 393.976L421.187 383.422C421.062 383.021 421.287 382.593 421.687 382.469C422.091 382.345 422.516 382.573 422.641 382.973L425.894 393.531C426.018 393.931 425.794 394.356 425.393 394.48C425.317 394.505 425.241 394.515 425.165 394.515Z" fill="#BC8271"/>
<path d="M380.006 380.431C379.971 380.431 379.937 380.431 379.899 380.424C379.485 380.366 379.194 379.982 379.253 379.565L387.321 322.239C387.379 321.825 387.766 321.531 388.181 321.593C388.595 321.652 388.885 322.035 388.826 322.453L380.759 379.779C380.707 380.159 380.379 380.431 380.006 380.431Z" fill="#BC8271"/>
<path d="M401.999 382.283C401.954 382.283 401.909 382.279 401.864 382.272C401.45 382.196 401.177 381.799 401.249 381.385L412.135 321.887C412.211 321.473 412.608 321.2 413.023 321.272C413.437 321.348 413.71 321.745 413.634 322.16L402.748 381.661C402.683 382.027 402.362 382.283 401.999 382.283Z" fill="#BC8271"/>
<path d="M428.532 355.006C428.518 355.006 428.508 355.006 428.494 355.006L337.528 350.745C337.106 350.724 336.785 350.368 336.802 349.947C336.823 349.529 337.189 349.208 337.6 349.222L428.567 353.483C428.985 353.504 429.309 353.86 429.292 354.281C429.271 354.689 428.936 355.006 428.532 355.006Z" fill="#BC8271"/>
</svg>
