<svg width="48" height="48" viewBox="0 0 48 48" fill="none" xmlns="http://www.w3.org/2000/svg">
<path d="M47.9399 23.992C47.9399 36.9375 37.4456 47.4319 24.5 47.4319C11.5545 47.4319 1.06018 36.9375 1.06018 23.992C1.06018 11.0467 11.5545 0.552328 24.5 0.552328C37.4456 0.552328 47.9399 11.0467 47.9399 23.992Z" fill="white"/>
<path d="M14.6681 22.6083C14.0871 22.6083 13.6143 23.0812 13.6143 23.6622C13.6143 24.2434 14.0871 24.7161 14.6681 24.7161H25.3019C25.883 24.7161 26.3558 24.2434 26.3558 23.6622C26.3558 23.0812 25.883 22.6083 25.3019 22.6083H14.6681ZM25.3019 25.3801H14.6681C13.7209 25.3801 12.9503 24.6094 12.9503 23.6622C12.9503 22.715 13.7209 21.9443 14.6681 21.9443H25.3019C26.2491 21.9443 27.0198 22.715 27.0198 23.6622C27.0198 24.6094 26.2491 25.3801 25.3019 25.3801Z" fill="#242424"/>
<path d="M32.7296 30.1491C33.6181 31.7042 35.0892 33.618 36.0066 33.242C36.2644 33.1366 36.3254 32.987 36.3488 32.8839C36.499 32.2221 35.584 30.9039 34.9718 30.2284C34.9497 30.204 34.932 30.1773 34.9185 30.1491H32.7296ZM35.7696 33.9526C33.9927 33.953 32.1032 30.4089 31.8759 29.9696C31.8226 29.8667 31.8269 29.7434 31.887 29.6444C31.9473 29.5455 32.0548 29.4851 32.1707 29.4851H37.9135C37.709 27.762 35.9783 26.6843 35.9597 26.673C35.8035 26.5774 35.7538 26.3732 35.8489 26.2169C35.9444 26.0605 36.1481 26.0109 36.3046 26.1057C36.3982 26.1626 38.5971 27.5238 38.5971 29.8171C38.5971 30.0003 38.4483 30.1491 38.2651 30.1491H35.7746C36.2895 30.7897 37.2086 32.0958 36.9963 33.0308C36.9366 33.2941 36.76 33.6512 36.258 33.8567C36.0971 33.9223 35.9338 33.9526 35.7696 33.9526Z" fill="#242424"/>
<path d="M11.9375 29.5396H10.0831C9.98171 29.5396 9.88576 29.4931 9.82285 29.4134C9.75977 29.3337 9.73669 29.2296 9.76026 29.1309L10.2171 27.2049C10.2417 27.1017 10.314 27.0164 10.412 26.9753L13.8246 25.5463C13.9938 25.4752 14.1883 25.5552 14.259 25.7242C14.3299 25.8934 14.2502 26.0879 14.0811 26.1588L10.8242 27.5225L10.5033 28.8756H11.9375C12.1208 28.8756 12.2695 29.0241 12.2695 29.2076C12.2695 29.3908 12.1208 29.5396 11.9375 29.5396Z" fill="#242424"/>
<path d="M22.118 32.51C22.0956 32.51 22.0727 32.5078 22.0499 32.503C21.8705 32.4657 21.7553 32.2899 21.7926 32.1103C21.821 31.9722 22.4604 28.7038 19.8542 27.5868C17.1318 26.4198 12.5099 28.6573 12.4634 28.6801C12.2989 28.7606 12.0999 28.6925 12.0192 28.528C11.9385 28.3633 12.0064 28.1645 12.1711 28.0838C12.3716 27.9855 17.1156 25.6907 20.1159 26.9764C23.2239 28.3085 22.4508 32.2066 22.4427 32.2459C22.41 32.4024 22.2719 32.51 22.118 32.51Z" fill="#242424"/>
<path d="M35.2179 36.7139C32.9953 36.7139 31.1869 34.9055 31.1869 32.6827C31.1869 31.7589 31.5076 30.8561 32.0896 30.1404C32.2053 29.9983 32.4145 29.9769 32.5566 30.0925C32.699 30.2082 32.7204 30.4172 32.6047 30.5594C32.1186 31.157 31.8509 31.9112 31.8509 32.6827C31.8509 34.5394 33.3613 36.0499 35.2179 36.0499C37.0746 36.0499 38.585 34.5394 38.585 32.6827C38.585 31.6676 38.1335 30.717 37.3465 30.0739C37.2044 29.9578 37.1833 29.7488 37.2993 29.6067C37.4157 29.4648 37.6245 29.4437 37.7666 29.5596C38.7087 30.3292 39.249 31.4676 39.249 32.6827C39.249 34.9055 37.4406 36.7139 35.2179 36.7139Z" fill="#242424"/>
<path d="M15.9358 36.1047C13.6377 36.1047 11.9048 34.4658 11.9048 32.2924C11.9048 32.109 12.0534 31.9604 12.2368 31.9604C12.42 31.9604 12.5688 32.109 12.5688 32.2924C12.5688 34.0872 14.0161 35.4407 15.9358 35.4407C17.8552 35.4407 19.3027 34.0872 19.3027 32.2924C19.3027 32.109 19.4513 31.9604 19.6347 31.9604C19.818 31.9604 19.9667 32.109 19.9667 32.2924C19.9667 34.4658 18.2337 36.1047 15.9358 36.1047Z" fill="#242424"/>
<path d="M27.2208 19.9294C27.0765 19.9294 26.9439 19.8348 26.9019 19.6894C26.8511 19.5131 26.9527 19.3292 27.1288 19.2782L28.7295 18.8166C28.9057 18.7658 29.0898 18.8672 29.1407 19.0435C29.1915 19.2196 29.0898 19.4037 28.9138 19.4545L27.3129 19.9163C27.2822 19.9251 27.2511 19.9294 27.2208 19.9294Z" fill="#242424"/>
<path d="M29.4296 17.6033C29.3424 17.6033 29.2553 17.5691 29.19 17.501L27.7817 16.0317C27.6547 15.8994 27.659 15.6893 27.7915 15.5625C27.9238 15.4356 28.1338 15.4398 28.2608 15.5724L29.6693 17.0415C29.7961 17.174 29.7918 17.384 29.6593 17.511C29.5949 17.5727 29.5122 17.6033 29.4296 17.6033Z" fill="#242424"/>
<path d="M27.221 16.8689C27.1397 16.8689 27.0583 16.8393 26.9942 16.7794C26.8603 16.6543 26.8531 16.4443 26.9783 16.3103L28.4828 14.6996C28.6084 14.5656 28.8183 14.5585 28.9521 14.6837C29.0862 14.8088 29.0933 15.019 28.9682 15.153L27.4637 16.7635C27.3981 16.8334 27.3096 16.8689 27.221 16.8689Z" fill="#242424"/>
<path d="M31.8193 16.6992L32.8105 19.5922L34.0423 18.939L33.9813 16.9575L31.8193 16.6992ZM28.6276 18.3567L30.1737 20.3059L32.2164 19.9071L31.1541 16.8066L28.6276 18.3567ZM11.2939 31.846H30.3142C30.8766 30.977 33.6107 26.8914 35.7694 26.1457C35.6301 25.1449 34.9593 21.6506 32.2925 20.5701L30.8827 20.8444C32.0761 21.8877 32.5482 23.751 32.0917 25.837C31.6428 27.8869 30.1938 30.1345 28.0727 30.2249C27.1175 30.2649 26.3318 29.9739 25.7365 29.3583C24.6072 28.1904 24.5063 26.1864 24.5154 25.3752C23.093 25.3559 17.5868 25.2888 15.4288 25.3798C13.6899 25.4532 11.9683 29.734 11.2939 31.846ZM30.4959 32.51H10.8448C10.7403 32.51 10.6418 32.4609 10.5791 32.3772C10.5163 32.2935 10.4969 32.1851 10.5261 32.0849C10.7434 31.3424 12.7268 24.829 15.4009 24.7165C17.895 24.6112 24.7952 24.7151 24.8645 24.7161C24.956 24.7176 25.043 24.7566 25.1047 24.8242C25.1663 24.8918 25.1974 24.9819 25.1906 25.073C25.1886 25.0988 25.0124 27.656 26.215 28.8978C26.6789 29.3769 27.2764 29.5937 28.0446 29.5615C29.8145 29.4862 31.0469 27.5043 31.443 25.6949C31.8 24.0644 31.607 21.8478 29.8887 20.9664C29.8842 20.964 29.8797 20.9617 29.8754 20.9591C29.8753 20.9591 29.8753 20.9591 29.8753 20.9591C29.8751 20.9589 29.8749 20.9589 29.8748 20.9587C29.8346 20.936 29.8009 20.9058 29.7743 20.8709L27.8746 18.4757C27.8157 18.4013 27.7913 18.3052 27.8079 18.2118C27.8243 18.1181 27.8803 18.0363 27.9613 17.9865L31.1541 16.0275C31.1764 16.0133 31.2003 16.0016 31.2263 15.9927C31.2775 15.9752 31.3302 15.9709 31.38 15.9779L34.3438 16.332C34.5068 16.3516 34.6312 16.4874 34.6363 16.6515L34.7125 19.1253C34.7163 19.2518 34.6479 19.3695 34.536 19.4289L33.0704 20.2059C36.0757 21.8604 36.4482 26.1691 36.4633 26.3635C36.4764 26.531 36.3622 26.6821 36.1975 26.7149C34.4378 27.0669 31.6881 30.9053 30.777 32.3548C30.7162 32.4514 30.6101 32.51 30.4959 32.51Z" fill="#242424"/>
<path d="M16.2931 34.3572C16.0443 34.3572 15.8026 34.3273 15.5682 34.2672C14.1009 33.891 13.513 32.4769 13.4887 32.417C13.4197 32.247 13.5017 32.0534 13.6717 31.9845C13.8413 31.9158 14.0345 31.9975 14.1038 32.1668C14.1107 32.1837 14.6004 33.3374 15.7394 33.6256C16.7292 33.8753 17.9332 33.4306 19.3181 32.3018C19.4602 32.1859 19.6692 32.207 19.7853 32.3492C19.901 32.4913 19.8797 32.7005 19.7376 32.8162C18.4805 33.8412 17.3255 34.3572 16.2931 34.3572Z" fill="#242424"/>
<path d="M15.4147 30.9106C15.3714 30.9106 15.3272 30.902 15.2847 30.8839C15.1161 30.812 15.0375 30.6172 15.1094 30.4483L15.9854 28.3919C16.0571 28.2233 16.252 28.1446 16.421 28.2166C16.5896 28.2883 16.6682 28.4834 16.5963 28.652L15.7203 30.7086C15.6665 30.8349 15.5437 30.9106 15.4147 30.9106Z" fill="#242424"/>
<path d="M17.4911 30.9106C17.4478 30.9106 17.4036 30.902 17.3613 30.8839C17.1926 30.812 17.1139 30.6172 17.1858 30.4483L18.0618 28.3919C18.1335 28.2233 18.3282 28.1446 18.4974 28.2166C18.666 28.2883 18.7445 28.4834 18.6727 28.652L17.7967 30.7086C17.7429 30.8349 17.6202 30.9106 17.4911 30.9106Z" fill="#242424"/>
<path d="M14.0041 21.9385H24.5419V12.4301H14.0041V21.9385ZM24.8739 22.6025H13.6721C13.4887 22.6025 13.3401 22.454 13.3401 22.2705V12.0981C13.3401 11.9146 13.4887 11.7661 13.6721 11.7661H24.8739C25.0572 11.7661 25.2059 11.9146 25.2059 12.0981V22.2705C25.2059 22.454 25.0572 22.6025 24.8739 22.6025Z" fill="#242424"/>
<path d="M13.6722 12.4302C13.5658 12.4302 13.4611 12.3789 13.397 12.2841C13.2943 12.1322 13.3341 11.9259 13.486 11.8231L15.5205 10.4468C15.5754 10.4096 15.6402 10.3899 15.7064 10.3899H26.298C26.4333 10.3899 26.5552 10.4719 26.606 10.5974C26.6566 10.7229 26.6261 10.8665 26.5288 10.9606L25.1047 12.3369C24.973 12.4642 24.7625 12.4607 24.6352 12.3288C24.5077 12.1969 24.5114 11.9868 24.6432 11.8595L25.4768 11.0539H15.8082L13.858 12.3731C13.8011 12.4116 13.7363 12.4302 13.6722 12.4302Z" fill="#242424"/>
<path d="M24.8737 22.6025C24.7955 22.6025 24.7172 22.5751 24.6539 22.5194C24.5166 22.3979 24.5037 22.188 24.625 22.0508L25.966 20.5338V10.7218C25.966 10.5383 26.1147 10.3898 26.298 10.3898C26.4814 10.3898 26.63 10.5383 26.63 10.7218V20.6597C26.63 20.7405 26.6003 20.8189 26.5467 20.8795L25.1225 22.4905C25.057 22.5647 24.9657 22.6025 24.8737 22.6025Z" fill="#242424"/>
<path d="M19.9144 12.2622C19.8397 12.2622 19.7647 12.2371 19.7026 12.1857C19.5615 12.0686 19.5419 11.8595 19.6589 11.7182L20.5862 10.6002C20.7032 10.4591 20.9126 10.4395 21.0537 10.5566C21.1948 10.6736 21.2144 10.8829 21.0973 11.024L20.1702 12.1422C20.1045 12.2212 20.0099 12.2622 19.9144 12.2622Z" fill="#242424"/>
<path d="M17.6399 16.8127C16.6089 16.8127 15.7699 15.8445 15.7699 14.6544C15.7699 14.4232 15.8014 14.1953 15.8637 13.9771C15.9138 13.8007 16.0971 13.6987 16.2739 13.7489C16.4502 13.7992 16.5524 13.9828 16.5021 14.1592C16.4568 14.3181 16.4339 14.4846 16.4339 14.6544C16.4339 15.4784 16.9749 16.1487 17.6399 16.1487C18.3049 16.1487 18.8459 15.4784 18.8459 14.6544C18.8459 14.4861 18.8233 14.3211 18.779 14.1639C18.729 13.9874 18.8318 13.8038 19.0082 13.754C19.1845 13.7042 19.3679 13.8068 19.4179 13.9833C19.4788 14.1992 19.5099 14.425 19.5099 14.6544C19.5099 15.8445 18.6711 16.8127 17.6399 16.8127Z" fill="#242424"/>
<path d="M16.7202 16.4478C16.6933 16.4478 16.6661 16.4444 16.6387 16.4376C16.4609 16.3926 16.3532 16.2122 16.398 16.0344L16.9144 13.9871C16.9592 13.8092 17.1393 13.7015 17.3174 13.7464C17.4952 13.7913 17.6031 13.9717 17.5583 14.1495L17.0419 16.1968C17.0039 16.3473 16.8686 16.4478 16.7202 16.4478Z" fill="#242424"/>
<path d="M18.5569 16.2522C18.4084 16.2522 18.2732 16.1518 18.2352 16.0014L17.7681 14.1493C17.7233 13.9715 17.831 13.7911 18.0088 13.7463C18.1862 13.7018 18.367 13.8092 18.412 13.987L18.8791 15.8389C18.9239 16.0166 18.816 16.1971 18.6383 16.2421C18.611 16.2489 18.5838 16.2522 18.5569 16.2522Z" fill="#242424"/>
<path d="M17.64 20.9644C17.4567 20.9644 17.308 20.8156 17.308 20.6324V16.4809C17.308 16.2976 17.4567 16.1489 17.64 16.1489C17.8234 16.1489 17.972 16.2976 17.972 16.4809V20.6324C17.972 20.8156 17.8234 20.9644 17.64 20.9644Z" fill="#242424"/>
<path d="M21.7226 14.2971C21.539 14.3184 21.2998 14.3811 21.1059 14.5516C20.8451 14.781 20.713 15.164 20.713 15.6899C20.713 16.23 20.8534 16.6422 21.1303 16.9148C21.3184 17.0999 21.5426 17.1943 21.7226 17.2426V14.2971ZM22.0546 20.9644C21.8711 20.9644 21.7226 20.8156 21.7226 20.6324V17.9224C21.4352 17.869 21.0149 17.733 20.6645 17.3879C20.2559 16.9858 20.049 16.4145 20.049 15.6899C20.049 14.9605 20.2593 14.4077 20.6743 14.047C21.2735 13.5257 22.0673 13.6306 22.1007 13.6353C22.2645 13.6582 22.3866 13.7985 22.3866 13.964V20.6324C22.3866 20.8156 22.2378 20.9644 22.0546 20.9644Z" fill="#242424"/>
</svg>
