<svg width="238" height="238" viewBox="0 0 238 238" fill="none" xmlns="http://www.w3.org/2000/svg">
<path d="M225.567 119C225.567 177.855 177.855 225.567 119 225.567C60.1444 225.567 12.4326 177.855 12.4326 119C12.4326 60.1446 60.1444 12.4328 119 12.4328C177.855 12.4328 225.567 60.1446 225.567 119Z" fill="#F2E6DC"/>
<path d="M201.196 173.148H122.34V24.38H201.196V173.148Z" fill="#E6D0BE"/>
<path d="M125.242 14.4385C120.472 14.4385 116.593 18.318 116.593 23.0861V173.027C116.593 177.796 120.472 181.676 125.242 181.676H197.75C202.52 181.676 206.399 177.796 206.399 173.027V23.0861C206.399 18.318 202.52 14.4385 197.75 14.4385H125.242ZM197.75 182.188H125.242C120.189 182.188 116.079 178.079 116.079 173.027V23.0861C116.079 18.035 120.189 13.9249 125.242 13.9249H197.75C202.803 13.9249 206.913 18.035 206.913 23.0861V173.027C206.913 178.079 202.803 182.188 197.75 182.188Z" fill="#363E44"/>
<path d="M135.649 50.5198H135.525C133.113 50.5198 131.157 48.5655 131.157 46.1535V24.38H140.016V46.1535C140.016 48.5655 138.061 50.5198 135.649 50.5198Z" fill="white"/>
<path d="M126.79 50.5198H126.665C124.253 50.5198 122.298 48.5655 122.298 46.1535V24.38H131.156V46.1535C131.156 48.5655 129.201 50.5198 126.79 50.5198Z" fill="#7B2D2D"/>
<path d="M144.388 50.5198H144.264C141.852 50.5198 139.897 48.5655 139.897 46.1535V24.38H148.756V46.1535C148.756 48.5655 146.8 50.5198 144.388 50.5198Z" fill="#7B2D2D"/>
<path d="M153.129 50.5198H153.003C150.592 50.5198 148.637 48.5655 148.637 46.1535V24.38H157.495V46.1535C157.495 48.5655 155.54 50.5198 153.129 50.5198Z" fill="white"/>
<path d="M161.869 50.5198H161.744C159.332 50.5198 157.377 48.5655 157.377 46.1535V24.38H166.237V46.1535C166.237 48.5655 164.281 50.5198 161.869 50.5198Z" fill="#7B2D2D"/>
<path d="M170.608 50.5198H170.484C168.072 50.5198 166.117 48.5655 166.117 46.1535V24.38H174.976V46.1535C174.976 48.5655 173.02 50.5198 170.608 50.5198Z" fill="white"/>
<path d="M179.35 50.5198H179.225C176.813 50.5198 174.857 48.5655 174.857 46.1535V24.38H183.716V46.1535C183.716 48.5655 181.762 50.5198 179.35 50.5198Z" fill="#7B2D2D"/>
<path d="M188.089 50.5198H187.964C185.552 50.5198 183.597 48.5655 183.597 46.1535V24.38H192.456V46.1535C192.456 48.5655 190.501 50.5198 188.089 50.5198Z" fill="white"/>
<path d="M196.829 50.5198H196.704C194.293 50.5198 192.338 48.5655 192.338 46.1535V24.38H201.196V46.1535C201.196 48.5655 199.241 50.5198 196.829 50.5198Z" fill="#7B2D2D"/>
<path d="M201.17 24.6362H122.34C122.198 24.6362 122.084 24.5221 122.084 24.38C122.084 24.2379 122.198 24.1226 122.34 24.1226H201.17C201.311 24.1226 201.426 24.2379 201.426 24.38C201.426 24.5221 201.311 24.6362 201.17 24.6362Z" fill="#7B2D2D"/>
<path d="M138.356 159.704H184.857V113.224H138.356V159.704ZM185.114 160.218H138.099C137.958 160.218 137.843 160.102 137.843 159.96V112.967C137.843 112.825 137.958 112.711 138.099 112.711H185.114C185.256 112.711 185.372 112.825 185.372 112.967V159.96C185.372 160.102 185.256 160.218 185.114 160.218Z" fill="white"/>
<path d="M159.085 152.857L144.365 139.474L148.913 133.869L158.246 141.327L172.89 120.072L178.849 124.172L159.085 152.857Z" fill="#7B2D2D"/>
<path d="M148.778 92.7578C148.659 92.7578 148.554 92.6763 148.528 92.5587L142.385 65.6851L134.782 65.7573C134.631 65.7608 134.525 65.6443 134.522 65.5034C134.521 65.3613 134.635 65.2449 134.778 65.2437L142.587 65.1691C142.587 65.1691 142.588 65.1691 142.589 65.1691C142.709 65.1691 142.813 65.2518 142.839 65.3683L148.978 92.2267L176.676 89.8962L176.663 72.3237L168.3 72.3295C168.299 72.3295 168.299 72.3295 168.299 72.3295C168.158 72.3295 168.043 72.2154 168.043 72.0733C168.043 71.9312 168.157 71.8171 168.299 71.8159L176.919 71.8089H176.92C176.987 71.8089 177.053 71.8369 177.1 71.8846C177.149 71.9324 177.176 71.9976 177.176 72.0663L177.191 90.1327C177.191 90.2654 177.089 90.3772 176.956 90.3877L148.799 92.7567C148.792 92.7578 148.785 92.7578 148.778 92.7578Z" fill="#363E44"/>
<path d="M169.617 91.0049C169.484 91.0049 169.371 90.9012 169.362 90.7661L168.061 72.3422L144.114 72.3492C143.972 72.3492 143.856 72.2351 143.856 72.093C143.856 71.9509 143.972 71.8356 144.113 71.8356L168.299 71.8286C168.434 71.8286 168.546 71.9334 168.556 72.0674L169.873 90.73C169.883 90.871 169.776 90.9944 169.635 91.0037C169.629 91.0049 169.622 91.0049 169.617 91.0049Z" fill="#363E44"/>
<path d="M146.361 96.0818C146.36 96.0818 146.359 96.0818 146.357 96.0818C143.992 96.0841 142.069 98.0105 142.07 100.376C142.073 102.74 143.997 104.662 146.361 104.662C146.362 104.662 146.363 104.662 146.364 104.662C148.73 104.66 150.653 102.734 150.65 100.369C150.649 99.2229 150.202 98.1456 149.391 97.3362C148.582 96.5279 147.505 96.0818 146.361 96.0818ZM146.361 105.176C143.714 105.176 141.559 103.023 141.557 100.376C141.555 97.7275 143.708 95.5705 146.356 95.5682C146.359 95.5682 146.36 95.5682 146.361 95.5682C147.642 95.5682 148.847 96.0678 149.755 96.9728C150.662 97.8789 151.163 99.0855 151.164 100.368C151.166 103.017 149.013 105.173 146.364 105.176C146.363 105.176 146.362 105.176 146.361 105.176Z" fill="#363E44"/>
<path d="M179.202 96.0561C179.201 96.0561 179.199 96.0561 179.198 96.0561C176.833 96.0573 174.91 97.9836 174.911 100.349C174.913 102.713 176.837 104.635 179.202 104.635C179.203 104.635 179.203 104.635 179.204 104.635C181.569 104.634 183.492 102.708 183.491 100.342C183.49 99.1961 183.043 98.1187 182.232 97.3093C181.422 96.501 180.345 96.0561 179.202 96.0561ZM179.202 105.149C176.554 105.149 174.4 102.996 174.397 100.349C174.395 97.7006 176.549 95.5437 179.197 95.5425C179.198 95.5425 179.199 95.5425 179.202 95.5425C180.483 95.5425 181.688 96.041 182.596 96.9459C183.503 97.852 184.004 99.0586 184.005 100.341C184.007 102.991 181.854 105.146 179.205 105.149C179.204 105.149 179.203 105.149 179.202 105.149Z" fill="#363E44"/>
<path d="M150.907 100.594C150.766 100.594 150.65 100.478 150.65 100.337C150.65 100.195 150.766 100.08 150.907 100.08L174.618 100.06C174.76 100.06 174.874 100.175 174.874 100.317C174.875 100.458 174.76 100.574 174.618 100.574L150.908 100.594C150.908 100.594 150.908 100.594 150.907 100.594Z" fill="#363E44"/>
<path d="M147.693 96.2808C147.667 96.2808 147.642 96.2773 147.617 96.2691C147.481 96.2272 147.405 96.0839 147.447 95.9477L148.533 92.4257C148.575 92.2894 148.719 92.2137 148.854 92.2557C148.989 92.2976 149.065 92.4409 149.024 92.5771L147.937 96.0991C147.904 96.2097 147.802 96.2808 147.693 96.2808Z" fill="#363E44"/>
<path d="M162.762 91.5813C162.637 91.5813 162.527 91.4881 162.509 91.36L159.817 72.2292C159.797 72.0882 159.895 71.959 160.035 71.9392C160.175 71.9194 160.306 72.0172 160.325 72.1581L163.018 91.289C163.037 91.4287 162.939 91.5592 162.799 91.579C162.787 91.5801 162.775 91.5813 162.762 91.5813Z" fill="#363E44"/>
<path d="M155.424 92.1987C155.302 92.1987 155.193 92.1125 155.171 91.9879L151.538 72.1315C151.513 71.9917 151.605 71.859 151.745 71.8333C151.886 71.8077 152.018 71.8997 152.044 72.0395L155.677 91.8959C155.702 92.0357 155.609 92.1696 155.469 92.1941C155.454 92.1976 155.439 92.1987 155.424 92.1987Z" fill="#363E44"/>
<path d="M146.569 83.0957C146.433 83.0957 146.32 82.9886 146.313 82.8511C146.307 82.709 146.416 82.5891 146.557 82.5821L176.916 81.16C177.055 81.153 177.178 81.2625 177.183 81.4046C177.19 81.5467 177.081 81.6666 176.939 81.6736L146.582 83.0957C146.577 83.0957 146.574 83.0957 146.569 83.0957Z" fill="#363E44"/>
<path d="M158.438 222.405H222.116L212.183 167.412H170.828L158.438 222.405Z" fill="#D99C52"/>
<path d="M185.229 217.935C185.113 217.935 185.007 217.856 184.979 217.737C183.067 209.722 173.54 169.697 173.673 168.976C173.699 168.836 173.832 168.744 173.971 168.77C174.103 168.794 174.193 168.914 174.181 169.045C174.228 170.184 181.587 201.297 185.478 217.618C185.512 217.756 185.426 217.894 185.288 217.928C185.269 217.933 185.249 217.935 185.229 217.935Z" fill="#F7F1EB"/>
<path d="M161.333 220.347C161.244 220.347 161.157 220.301 161.11 220.217C161.04 220.093 161.083 219.937 161.206 219.866L171.786 213.862V170.306C171.786 170.164 171.9 170.049 172.042 170.049C172.184 170.049 172.3 170.164 172.3 170.306V214.011C172.3 214.105 172.25 214.19 172.169 214.235L161.46 220.313C161.419 220.336 161.376 220.347 161.333 220.347Z" fill="#F7F1EB"/>
<path d="M181.159 170.885C181.559 170.885 181.883 170.561 181.883 170.162V159.693C181.883 157.245 183.874 155.255 186.321 155.255H195.101C197.548 155.255 199.538 157.245 199.538 159.693V170.162C199.538 170.561 199.863 170.885 200.263 170.885C200.662 170.885 200.986 170.561 200.986 170.162V159.693C200.986 156.448 198.346 153.807 195.101 153.807H186.321C183.076 153.807 180.436 156.448 180.436 159.693V170.162C180.436 170.561 180.759 170.885 181.159 170.885Z" fill="#776E42"/>
<path d="M95.8083 206.273C94.8998 207.922 93.8749 210.198 93.2239 213.033C92.2164 217.423 92.5635 221.161 92.9723 223.477C103.262 223.477 113.551 223.477 123.84 223.477C123.626 222.1 123.272 220.875 122.845 219.793C118.769 209.454 105.72 206.33 102.758 205.69C100.441 205.884 98.1248 206.079 95.8083 206.273Z" fill="#363E44"/>
<path d="M92.1113 195.839L94.4616 206.733C94.9799 208.93 97.1008 210.417 99.3253 210.036C99.4534 210.014 99.5827 209.988 99.7143 209.956C101.773 209.463 103.159 207.527 103.004 205.415L101.988 194.755L92.1113 195.839Z" fill="#84524D"/>
<path d="M34.1969 203.039C34.1969 203.039 29.0496 212.978 29.9695 223.477C36.8729 223.477 43.7763 223.477 50.6797 223.477C50.1399 221.214 49.3153 218.576 48.029 215.75C45.8243 210.907 43.0742 207.296 40.8434 204.828L34.1969 203.039Z" fill="#363E44"/>
<path d="M33.2713 205.436C33.1243 201.808 33.1425 195.113 34.794 189.727L46.8347 193.281C46.8347 193.281 42.8837 199.289 41.6346 205.998C41.2571 208.027 39.4543 209.495 37.3965 209.342C37.1267 209.322 36.8454 209.287 36.5534 209.235C34.707 208.902 33.3472 207.31 33.2713 205.436Z" fill="#84524D"/>
<path d="M54.1423 96.9842C54.1423 96.9842 31.5201 132.313 31.2383 200.458H47.7586C47.7586 200.458 67.5691 141.572 80.6159 126.891L75.7899 94.0236L54.1423 96.9842Z" fill="#7B2D2D"/>
<path d="M64.5293 134.226C64.5293 134.226 85.4425 168.693 90.2878 200.458H105.701C105.701 200.458 107.04 123.668 78.9297 92.5002L65.2468 95.2139L64.5293 134.226Z" fill="#7B2D2D"/>
<path d="M71.4256 140.568C71.3896 140.568 71.3532 140.56 71.3182 140.545C71.1895 140.486 71.1333 140.333 71.1925 140.204L79.9513 121.184C80.0105 121.056 80.1629 121 80.292 121.058C80.4207 121.117 80.477 121.27 80.4176 121.399L71.6589 140.419C71.6157 140.512 71.5226 140.568 71.4256 140.568Z" fill="white"/>
<path d="M73.9023 70.601C73.9023 70.601 91.3713 83.1503 105.981 69.1347L109.084 62.8373C109.084 62.8373 112.666 72.6042 110.135 82.1231C107.604 91.6419 97.197 93.5659 82.9214 90.6554L73.9023 70.601Z" fill="#84524D"/>
<path d="M46.2025 108.406C55.1397 102.788 73.8439 92.0602 87.0608 91.5699C87.0608 91.5699 88.5721 79.936 75.4399 69.4354C75.4399 69.4354 60.2684 59.7709 40.2377 68.4431C40.2377 68.4431 26.3346 91.6316 32.9926 104.778C35.4547 109.64 41.5888 111.306 46.2025 108.406Z" fill="#EFBC73"/>
<path d="M40.6323 68.2192C40.6323 74.7262 40.9478 80.2607 41.4975 89.6607C42.1289 100.458 42.4175 105.711 38.4145 107.309C16.2752 116.15 22.1692 77.9593 40.6323 68.2192Z" fill="#84524D"/>
<path d="M36.3348 90.652C36.3348 90.652 49.6288 85.2386 56.878 82.8674C64.4912 80.3761 76.0945 77.8069 76.4329 79.4339C76.6258 80.3622 75.1158 81.0388 70.9593 82.582C71.2475 82.7136 72.0065 83.2564 72.0444 84.145C72.1004 85.4611 71.0641 85.8722 70.9859 85.9456C71.0872 85.9829 72.1679 86.4103 72.3546 87.285C72.5647 88.2703 72.13 89.0285 71.485 89.485C71.7335 89.5852 72.6134 90.0441 72.768 90.8908C72.9269 91.7608 72.4614 92.7845 71.58 93.0582C69.9632 93.5614 65.1298 94.9625 62.8607 95.9315C58.3956 97.838 43.4474 106.737 36.2656 107.787C37.4659 101.62 36.3348 90.652 36.3348 90.652Z" fill="#84524D"/>
<path d="M69.5411 92.9907C69.4188 92.9907 69.3105 92.9034 69.2884 92.7788L69.0391 91.3695C69.0144 91.2297 69.1076 91.097 69.2472 91.0714C69.3882 91.0469 69.5203 91.1401 69.5449 91.2798L69.7942 92.6891C69.819 92.8288 69.7256 92.9616 69.5859 92.9872C69.5709 92.9896 69.5559 92.9907 69.5411 92.9907Z" fill="#363E44"/>
<path d="M68.8774 89.6025C68.7519 89.6025 68.642 89.5105 68.6236 89.3824L68.3923 87.781C68.372 87.6401 68.4694 87.5108 68.6097 87.4898C68.7488 87.47 68.8803 87.5667 68.9006 87.7076L69.1319 89.309C69.1522 89.4488 69.0548 89.5792 68.9145 89.6002C68.902 89.6014 68.8897 89.6025 68.8774 89.6025Z" fill="#363E44"/>
<path d="M68.4245 85.9968C68.3024 85.9968 68.194 85.9083 68.172 85.7849C68.1248 85.5193 68.084 85.2794 68.0431 85.0383C68.0033 84.8042 67.9632 84.5689 67.9171 84.3081C67.8923 84.1683 67.9853 84.0355 68.125 84.0111C68.2645 83.9854 68.398 84.0786 68.4227 84.2184C68.4693 84.4804 68.5093 84.7169 68.5495 84.9533C68.59 85.192 68.6306 85.4308 68.6776 85.694C68.7024 85.8338 68.6094 85.9677 68.4698 85.9922C68.4546 85.9945 68.4394 85.9968 68.4245 85.9968Z" fill="#363E44"/>
<path d="M67.767 83.0688C67.6522 83.0688 67.5479 82.9908 67.5183 82.8755L67.1682 81.4977C67.1331 81.3603 67.2163 81.2205 67.3537 81.1856C67.4914 81.1506 67.6308 81.2345 67.666 81.3719L68.0161 82.7486C68.051 82.886 67.9678 83.0258 67.8304 83.0607C67.8092 83.0665 67.788 83.0688 67.767 83.0688Z" fill="#363E44"/>
<path d="M103.441 79.3477H90.2012L98.9327 58.9217H112.173L103.441 79.3477Z" fill="#7B2D2D"/>
<path d="M101.928 61.386C101.928 61.8799 101.527 62.2805 101.033 62.2805C100.538 62.2805 100.138 61.8799 100.138 61.386C100.138 60.8911 100.538 60.4904 101.033 60.4904C101.527 60.4904 101.928 60.8911 101.928 61.386Z" fill="#EFBC73"/>
<path d="M111.849 65.9027C111.849 67.2432 111.736 68.3298 109.415 68.3298C107.093 68.3298 103.441 67.2432 103.441 65.9027C103.441 64.5621 107.093 63.4755 109.415 63.4755C111.736 63.4755 111.849 64.5621 111.849 65.9027Z" fill="#84524D"/>
<path d="M102.208 69.4702C102.208 68.1285 105.859 67.0419 108.182 67.0419C110.504 67.0419 110.617 68.1285 110.617 69.4702H102.208Z" fill="#84524D"/>
<path d="M110.617 69.4703C110.617 70.8108 110.504 71.8975 108.182 71.8975C105.859 71.8975 102.208 70.8108 102.208 69.4703H110.617Z" fill="#84524D"/>
<path d="M100.976 73.0364C100.976 71.6958 104.627 70.6092 106.948 70.6092C109.27 70.6092 109.383 71.6958 109.383 73.0364H100.976Z" fill="#84524D"/>
<path d="M109.383 73.0364C109.383 74.377 109.27 75.4636 106.948 75.4636C104.627 75.4636 100.976 74.377 100.976 73.0364H109.383Z" fill="#84524D"/>
<path d="M101.467 76.1064C101.467 75.0408 104.369 74.1766 106.214 74.1766C108.06 74.1766 108.15 75.0408 108.15 76.1064H101.467Z" fill="#84524D"/>
<path d="M108.15 76.1065C108.15 77.1721 108.06 78.0352 106.214 78.0352C104.369 78.0352 101.467 77.1721 101.467 76.1065H108.15Z" fill="#84524D"/>
<path d="M67.8927 52.0012C67.8927 56.7204 64.0675 60.5452 59.3487 60.5452C54.6299 60.5452 50.8047 56.7204 50.8047 52.0012C50.8047 47.2831 54.6299 43.4572 59.3487 43.4572C64.0675 43.4572 67.8927 47.2831 67.8927 52.0012Z" fill="#363E44"/>
<path d="M65.2504 56.2603C64.1693 55.6628 62.3169 54.0672 61.7196 55.148L54.7102 66.358C54.1129 67.4388 57.6985 67.0626 58.7797 67.6601C59.8608 68.2576 61.2215 67.8651 61.8189 66.7842L66.1265 59.2989C66.7239 58.2181 66.3316 56.8578 65.2504 56.2603Z" fill="#84524D"/>
<path d="M64.4418 67.2236C64.4418 68.2287 61.7357 69.0439 58.3977 69.0439C55.0596 69.0439 52.3535 68.2287 52.3535 67.2236C52.3535 66.2185 55.0596 65.4044 58.3977 65.4044C61.7357 65.4044 64.4418 66.2185 64.4418 67.2236Z" fill="#84524D"/>
<path d="M70.9078 59.3446C69.938 61.1592 64.2534 60.3788 64.2534 60.3788L59.296 56.5133C58.0044 53.9219 59.0573 50.775 61.648 49.4833C64.2387 48.1917 67.386 49.2446 68.6776 51.8348C68.6776 51.8348 71.8956 57.4951 70.9078 59.3446Z" fill="#84524D"/>
<path d="M68.7539 53.3372C68.7539 53.3372 70.7569 54.0604 70.8684 54.4588C71.0014 54.9351 69.6679 55.9309 69.6679 55.9309C69.6679 55.9309 68.7906 53.3232 68.7539 53.3372Z" fill="#84524D"/>
<path d="M64.4209 55.2472C64.4209 55.2472 64.9955 54.4331 65.9423 53.9614C66.1437 53.8612 66.5673 55.6618 66.3305 55.6665C65.2899 55.684 64.4209 55.2472 64.4209 55.2472Z" fill="white"/>
<mask id="mask0_869_254" style="mask-type:luminance" maskUnits="userSpaceOnUse" x="64" y="53" width="6" height="3">
<path d="M64.4199 55.2473C64.4199 55.2473 65.2651 54.0501 66.594 53.7181C67.923 53.385 69.2323 54.0431 69.2323 54.0431C69.2323 54.0431 68.3871 55.2403 67.0581 55.5734C65.7292 55.9054 64.4199 55.2473 64.4199 55.2473Z" fill="white"/>
</mask>
<g mask="url(#mask0_869_254)">
<path d="M65.9602 53.8999C66.2742 52.9623 67.2893 52.4557 68.2276 52.7702C69.1659 53.0834 69.672 54.099 69.3581 55.0366C69.0442 55.9753 68.029 56.4819 67.0908 56.1675C66.1524 55.853 65.6463 54.8386 65.9602 53.8999Z" fill="#363E44"/>
</g>
<path d="M68.5848 57.6558C68.5478 57.6558 68.5108 57.6534 68.4738 57.6488C68.1017 57.6069 67.779 57.3506 67.6519 56.9966C67.604 56.8626 67.6734 56.7159 67.8068 56.6681C67.94 56.6204 68.0873 56.6891 68.1353 56.823C68.1968 56.9942 68.3524 57.1188 68.5317 57.1386C68.7187 57.1596 68.9006 57.0688 68.9973 56.9057C69.0698 56.7846 69.2272 56.7438 69.3494 56.8172C69.4713 56.8894 69.5111 57.0466 69.4387 57.1689C69.2581 57.4729 68.9311 57.6558 68.5848 57.6558Z" fill="#363E44"/>
<path d="M55.5606 57.4659C55.5606 57.4659 62.9262 57.7908 67.5839 50.4255C72.2417 43.0589 59.4602 43.4922 54.1525 45.9834C50.753 47.5802 55.5606 57.4659 55.5606 57.4659Z" fill="#363E44"/>
<path d="M57.3879 63.5234C57.1472 63.5234 56.9897 63.499 56.9714 63.4955C56.8313 63.4722 56.7363 63.3406 56.7593 63.2008C56.7821 63.0611 56.9134 62.9656 57.0541 62.9889C57.0647 62.99 58.1896 63.1589 59.0489 62.4671C59.6614 61.9744 60.0051 61.1615 60.0705 60.0504C60.1676 58.3989 58.9953 57.4788 58.1394 56.808C57.5914 56.377 57.1956 56.0672 57.28 55.6549C57.3585 55.2718 57.8198 55.0132 58.9822 54.7023C62.9553 53.6401 65.2723 48.9523 65.2953 48.9045C65.3571 48.7776 65.5106 48.724 65.6384 48.7857C65.7658 48.8475 65.8191 49.0012 65.7573 49.1293C65.6596 49.3308 63.3175 54.0745 59.1147 55.1984C57.8562 55.535 57.7869 55.7365 57.7831 55.7574C57.7742 55.8681 58.2014 56.2035 58.4566 56.4038C59.3483 57.1038 60.6961 58.1613 60.5831 60.0807C60.5088 61.3455 60.0992 62.2842 59.3658 62.8724C58.6732 63.4268 57.8664 63.5234 57.3879 63.5234Z" fill="white"/>
<path d="M45.7122 27.3731C45.7122 27.3731 38.4132 43.4828 55.4131 50.9087C55.4131 50.9087 47.8201 37.6466 60.5519 26.8175L45.7122 27.3731Z" fill="#363E44"/>
</svg>
